<?xml version="1.0" encoding="utf-8"?>
<!-- Generator: Adobe Illustrator 25.4.1, SVG Export Plug-In . SVG Version: 6.00 Build 0)  -->
<svg version="1.1" id="Ñëîé_1" xmlns="http://www.w3.org/2000/svg" xmlns:xlink="http://www.w3.org/1999/xlink" x="0px" y="0px"
	 viewBox="0 0 301.42 310" style="enable-background:new 0 0 301.42 310;" xml:space="preserve">
<style type="text/css">
	.st0{fill:#E6E2D2;}
	.st1{fill:#6CB2CE;}
	.st2{fill:#377AA6;}
	.st3{fill:#60ABBF;}
	.st4{fill:#76BDEA;}
	.st5{fill:#FFFFFF;}
	.st6{fill:#FFA825;}
	.st7{fill:#EA3535;}
	.st8{fill:#E2E2E2;}
	.st9{fill:url(#SVGID_1_);}
	.st10{fill:#EAEAEA;}
	.st11{fill:#FFDFB0;}
	.st12{fill:#E8BCA2;}
	.st13{fill:#D19F41;}
</style>
<g>
	<path class="st0" d="M296.96,99.71v85.27c0,2.9-2.03,4.07-4.54,2.62l-115.2-66.51c-2.51-1.45-4.54-4.97-4.54-7.86V27.95
		L296.96,99.71z"/>
</g>
<path class="st1" d="M198.69,182.24c-0.23,0-0.46-0.12-0.58-0.34c-0.19-0.32-0.08-0.73,0.25-0.92l9.11-5.27
	c1.03-0.6,1.67-1.71,1.67-2.9v-7.05c0-0.37,0.3-0.67,0.67-0.67c0.37,0,0.67,0.3,0.67,0.67v7.05c0,1.67-0.9,3.23-2.35,4.07
	l-9.11,5.27C198.92,182.21,198.81,182.24,198.69,182.24z"/>
<g>
	<g>
		<g>
			<g>
				
					<rect x="191.66" y="178.01" transform="matrix(0.4974 0.8675 -0.8675 0.4974 257.3281 -76.2052)" class="st1" width="5.55" height="11.97"/>
				<path class="st1" d="M201.58,182.15c0-1.25-0.87-2.77-1.95-3.4s-1.96-0.12-1.96,1.13c0,1.25,0.87,2.77,1.95,3.4
					C200.7,183.91,201.58,183.41,201.58,182.15z"/>
			</g>
			<g>
				
					<rect x="178.42" y="181.21" transform="matrix(0.4974 0.8675 -0.8675 0.4974 257.2701 -62.8931)" class="st1" width="8.99" height="18.77"/>
				<path class="st2" d="M189.57,183.59l3.51-2.01c1.45,1.04,2.59,3.03,2.76,4.81l-3.51,2.01
					C190.88,187.35,189.74,185.37,189.57,183.59z"/>
				<path class="st1" d="M194.23,187.77c0.01-2.03-1.41-4.49-3.16-5.51c-1.75-1.02-3.18-0.2-3.18,1.83
					c-0.01,2.03,1.41,4.49,3.16,5.51C192.8,190.62,194.22,189.8,194.23,187.77z"/>
			</g>
		</g>
	</g>
	<path class="st0" d="M198.31,180.87c0.51-0.29,0.51-0.77,0-1.06s-1.33-0.3-1.84-0.01c-0.51,0.29-0.51,0.77,0,1.06
		C196.98,181.16,197.8,181.16,198.31,180.87z"/>
</g>
<path class="st1" d="M58.47,183.39c-0.11,0-0.23-0.03-0.33-0.09l-7.98-4.59c-0.67-0.38-1.06-1.07-1.06-1.85
	c0.01-0.77,0.42-1.45,1.09-1.83l51.71-28.31c4.76-2.61,7.72-7.6,7.72-13.03V69.43c0-1.11-0.57-2.11-1.52-2.68
	c-0.95-0.57-2.11-0.59-3.08-0.06l-17.24,9.4c-0.33,0.18-0.73,0.06-0.91-0.27c-0.18-0.33-0.06-0.73,0.27-0.91l17.24-9.4
	c1.4-0.76,3.05-0.73,4.41,0.08c1.37,0.81,2.18,2.24,2.18,3.83v64.26c0,5.92-3.23,11.37-8.42,14.21l-51.71,28.31
	c-0.35,0.19-0.39,0.53-0.4,0.66c0,0.13,0.03,0.47,0.38,0.67l7.98,4.59c0.32,0.18,0.43,0.6,0.25,0.92
	C58.93,183.27,58.7,183.39,58.47,183.39z"/>
<g>
	<g>
		<g>
			<g>
				
					<rect x="83.03" y="70.79" transform="matrix(0.4974 0.8675 -0.8675 0.4974 109.7284 -35.852)" class="st1" width="5.55" height="11.97"/>
				<path class="st1" d="M92.96,74.94c0-1.25-0.87-2.77-1.95-3.4c-1.08-0.63-1.96-0.12-1.96,1.13c0,1.25,0.87,2.77,1.95,3.4
					C92.07,76.69,92.95,76.19,92.96,74.94z"/>
			</g>
			<g>
				
					<rect x="69.8" y="74" transform="matrix(0.4974 0.8675 -0.8675 0.4974 109.6683 -22.5404)" class="st1" width="8.99" height="18.77"/>
				<path class="st2" d="M80.94,76.37l3.51-2.01c1.45,1.04,2.59,3.03,2.76,4.81l-3.51,2.01C82.25,80.14,81.11,78.15,80.94,76.37z"/>
				<path class="st1" d="M85.6,80.56c0.01-2.03-1.41-4.49-3.16-5.51c-1.75-1.02-3.18-0.2-3.18,1.82c-0.01,2.03,1.41,4.49,3.16,5.51
					C84.17,83.4,85.6,82.58,85.6,80.56z"/>
			</g>
		</g>
	</g>
	<path class="st0" d="M89.68,73.65c0.51-0.29,0.51-0.77,0-1.06s-1.33-0.3-1.84-0.01c-0.51,0.29-0.51,0.77,0,1.06
		C88.35,73.94,89.17,73.95,89.68,73.65z"/>
</g>
<g>
	<g>
		<g>
			<g>
				
					<rect x="57.11" y="177.25" transform="matrix(-0.4975 0.8675 -0.8675 -0.4975 248.6223 222.4406)" class="st1" width="5.55" height="11.97"/>
				<path class="st1" d="M52.73,181.4c0-1.25,0.87-2.77,1.95-3.4c1.08-0.63,1.96-0.12,1.96,1.13c0,1.25-0.87,2.77-1.95,3.4
					C53.61,183.15,52.74,182.65,52.73,181.4z"/>
			</g>
			<g>
				
					<rect x="66.91" y="180.46" transform="matrix(-0.4974 0.8675 -0.8675 -0.4974 271.6009 222.3381)" class="st1" width="8.99" height="18.77"/>
				<path class="st2" d="M64.74,182.83l-3.51-2.01c-1.45,1.04-2.59,3.03-2.76,4.81l3.51,2.01C63.44,186.6,64.58,184.61,64.74,182.83
					z"/>
				<path class="st1" d="M60.09,187.02c-0.01-2.03,1.41-4.49,3.16-5.51s3.18-0.2,3.18,1.82c0.01,2.03-1.41,4.49-3.16,5.51
					C61.52,189.86,60.09,189.04,60.09,187.02z"/>
			</g>
		</g>
	</g>
	<path class="st0" d="M56.01,180.11c-0.51-0.29-0.51-0.77,0-1.06c0.51-0.29,1.33-0.3,1.84-0.01c0.51,0.29,0.51,0.77,0,1.06
		C57.34,180.4,56.52,180.4,56.01,180.11z"/>
</g>
<g>
	<g>
		<path class="st0" d="M155.33,292.73L40.7,226.55c-3.24-1.87-2.84-5.14,0.91-7.3l78.05-45.05c3.74-2.16,9.41-2.4,12.65-0.52
			l114.63,66.18c3.24,1.87,2.84,5.14-0.91,7.3l-78.05,45.05C164.23,294.37,158.57,294.61,155.33,292.73z"/>
		<path class="st3" d="M249.13,227.5l-15.67-2.07l-101.15-58.4c-3.24-1.87-8.91-1.64-12.65,0.52l-71.67,41.36l-9.47-1.25v5.38
			l0.01,0c-0.06,1.24,0.65,2.44,2.18,3.32l114.63,66.18c3.24,1.87,8.91,1.64,12.65-0.52l78.05-45.05c2.11-1.22,3.16-2.78,3.09-4.25
			l0,0V227.5z"/>
		<path class="st2" d="M173.13,190.6l-7.19-4.15h-79l-38.95,22.47l-9.47-1.25v5.38l0.01,0c-0.06,1.24,0.65,2.44,2.18,3.32
			l114.63,66.18c1.71,0.99,4.1,1.38,6.53,1.22L173.13,190.6z"/>
		<path class="st1" d="M42.72,208.23l-4.2-0.56v5.38l0.01,0c-0.06,1.24,0.65,2.44,2.18,3.32l2.02,1.17V208.23z"/>
		<path class="st4" d="M156.48,283.08c3.07,1.17,7.47,0.91,10.75-0.67v-11.99h-10.75V283.08z"/>
		<path class="st0" d="M155.33,277.18L40.7,211c-3.24-1.87-2.84-5.14,0.91-7.3l78.05-45.05c3.74-2.16,9.41-2.4,12.65-0.52
			l114.63,66.18c3.24,1.87,2.84,5.14-0.91,7.3l-78.05,45.05C164.23,278.82,158.57,279.05,155.33,277.18z"/>
		<path class="st5" d="M246.03,229.64l-78.05,45.05c-3.74,2.16-9.41,2.4-12.65,0.52L40.7,209.04c-1.06-0.61-1.73-1.38-2.02-2.21
			c-0.51,1.53,0.14,3.09,2.02,4.17l114.63,66.18c3.24,1.87,8.91,1.64,12.65-0.52l78.05-45.05c2.52-1.45,3.52-3.41,2.92-5.1
			C248.59,227.62,247.61,228.73,246.03,229.64z"/>
		<g>
			<path class="st3" d="M89.45,189.09l-5.19-2.99c-0.42-0.24-0.36-0.66,0.12-0.94l6.12-3.53c0.48-0.28,1.21-0.31,1.62-0.07
				l5.19,2.99c0.42,0.24,0.36,0.66-0.12,0.94l-6.12,3.53C90.6,189.3,89.87,189.33,89.45,189.09z"/>
			<path class="st3" d="M97.46,193.71l-5.19-2.99c-0.42-0.24-0.36-0.66,0.12-0.94l6.12-3.53c0.48-0.28,1.21-0.31,1.62-0.07
				l5.19,2.99c0.42,0.24,0.36,0.66-0.12,0.94l-6.12,3.53C98.61,193.92,97.88,193.95,97.46,193.71z"/>
			<path class="st3" d="M105.47,198.34l-5.19-2.99c-0.42-0.24-0.36-0.66,0.12-0.94l6.12-3.53c0.48-0.28,1.21-0.31,1.62-0.07
				l5.19,2.99c0.42,0.24,0.36,0.66-0.12,0.94l-6.12,3.53C106.61,198.55,105.89,198.58,105.47,198.34z"/>
			<path class="st3" d="M116.55,194.52l-5.19-2.99c-0.42-0.24-0.36-0.66,0.12-0.94l5.14-2.97c0.48-0.28,1.21-0.31,1.62-0.07
				l5.19,2.99c0.42,0.24,0.36,0.66-0.12,0.94l-5.14,2.97C117.69,194.73,116.96,194.76,116.55,194.52z"/>
			<path class="st3" d="M124.56,199.14l-5.19-2.99c-0.42-0.24-0.36-0.66,0.12-0.94l5.14-2.97c0.48-0.28,1.21-0.31,1.62-0.07
				l5.19,2.99c0.42,0.24,0.36,0.66-0.12,0.94l-5.14,2.97C125.7,199.35,124.97,199.38,124.56,199.14z"/>
			<path class="st3" d="M132.57,203.77l-5.19-2.99c-0.42-0.24-0.36-0.66,0.12-0.94l5.14-2.97c0.48-0.28,1.21-0.31,1.62-0.07
				l5.19,2.99c0.42,0.24,0.36,0.66-0.12,0.94l-5.14,2.97C133.71,203.98,132.98,204.01,132.57,203.77z"/>
			<path class="st3" d="M140.58,208.39l-5.19-2.99c-0.42-0.24-0.36-0.66,0.12-0.94l5.14-2.97c0.48-0.28,1.21-0.31,1.62-0.07
				l5.19,2.99c0.42,0.24,0.36,0.66-0.12,0.94l-5.14,2.97C141.72,208.6,140.99,208.63,140.58,208.39z"/>
			<path class="st3" d="M148.59,213.02l-5.19-2.99c-0.42-0.24-0.36-0.66,0.12-0.94l5.14-2.97c0.48-0.28,1.21-0.31,1.62-0.07
				l5.19,2.99c0.42,0.24,0.36,0.66-0.12,0.94l-5.14,2.97C149.73,213.23,149,213.26,148.59,213.02z"/>
			<path class="st3" d="M156.6,217.64l-5.19-2.99c-0.42-0.24-0.36-0.66,0.12-0.94l5.14-2.97c0.48-0.28,1.21-0.31,1.62-0.07
				l5.19,2.99c0.42,0.24,0.36,0.66-0.12,0.94l-5.14,2.97C157.74,217.85,157.01,217.88,156.6,217.64z"/>
			<path class="st3" d="M164.61,222.26l-5.19-2.99c-0.42-0.24-0.36-0.66,0.12-0.94l5.14-2.97c0.48-0.28,1.21-0.31,1.62-0.07
				l5.19,2.99c0.42,0.24,0.36,0.66-0.12,0.94l-5.14,2.97C165.75,222.47,165.02,222.5,164.61,222.26z"/>
			<path class="st3" d="M172.61,226.89l-5.19-2.99c-0.42-0.24-0.36-0.66,0.12-0.94l5.14-2.97c0.48-0.28,1.21-0.31,1.62-0.07
				l5.19,2.99c0.42,0.24,0.36,0.66-0.12,0.94l-5.14,2.97C173.76,227.1,173.03,227.13,172.61,226.89z"/>
			<path class="st3" d="M180.62,231.51l-5.19-2.99c-0.42-0.24-0.36-0.66,0.12-0.94l5.14-2.97c0.48-0.28,1.21-0.31,1.62-0.07
				l5.19,2.99c0.42,0.24,0.36,0.66-0.12,0.94l-5.14,2.97C181.77,231.72,181.04,231.75,180.62,231.51z"/>
			<path class="st3" d="M188.63,236.14l-5.19-2.99c-0.42-0.24-0.36-0.66,0.12-0.94l5.14-2.97c0.48-0.28,1.21-0.31,1.62-0.07
				l5.19,2.99c0.42,0.24,0.36,0.66-0.12,0.94l-5.14,2.97C189.78,236.35,189.05,236.38,188.63,236.14z"/>
			<path class="st2" d="M128.35,192.33l-5.19-2.99c-0.42-0.24-0.36-0.66,0.12-0.94l5.14-2.97c0.48-0.28,1.21-0.31,1.62-0.07
				l5.19,2.99c0.42,0.24,0.36,0.66-0.12,0.94l-5.14,2.97C129.49,192.54,128.77,192.57,128.35,192.33z"/>
			<path class="st2" d="M120.22,187.64l-5.19-2.99c-0.42-0.24-0.36-0.66,0.12-0.94l5.14-2.97c0.48-0.28,1.21-0.31,1.62-0.07
				l5.19,2.99c0.42,0.24,0.36,0.66-0.12,0.94l-5.14,2.97C121.36,187.85,120.64,187.88,120.22,187.64z"/>
			<path class="st3" d="M112.08,182.93l-11.17-6.45c-0.42-0.24-0.36-0.66,0.12-0.94l5.14-2.97c0.48-0.28,1.21-0.31,1.62-0.07
				l11.17,6.45c0.42,0.24,0.36,0.66-0.12,0.94l-5.14,2.97C113.22,183.15,112.5,183.18,112.08,182.93z"/>
			<path class="st3" d="M117.77,177.22l-9.06-5.23c-0.42-0.24-0.36-0.66,0.12-0.94l5.14-2.97c0.48-0.28,1.21-0.31,1.62-0.07
				l9.07,5.23c0.42,0.24,0.36,0.66-0.12,0.94l-5.14,2.97C118.91,177.43,118.19,177.46,117.77,177.22z"/>
			<path class="st2" d="M136.36,196.95l-5.19-2.99c-0.42-0.24-0.36-0.66,0.12-0.94l5.14-2.97c0.48-0.28,1.21-0.31,1.62-0.07
				l5.19,2.99c0.42,0.24,0.36,0.66-0.12,0.94l-5.14,2.97C137.5,197.16,136.78,197.19,136.36,196.95z"/>
			<path class="st3" d="M144.37,201.58l-5.19-2.99c-0.42-0.24-0.36-0.66,0.12-0.94l5.14-2.97c0.48-0.28,1.21-0.31,1.62-0.07
				l5.19,2.99c0.42,0.24,0.36,0.66-0.12,0.94l-5.14,2.97C145.51,201.79,144.79,201.82,144.37,201.58z"/>
			<path class="st3" d="M152.38,206.2l-5.19-2.99c-0.42-0.24-0.36-0.66,0.12-0.94l5.14-2.97c0.48-0.28,1.21-0.31,1.62-0.07
				l5.19,2.99c0.42,0.24,0.36,0.66-0.12,0.94l-5.14,2.97C153.52,206.41,152.79,206.44,152.38,206.2z"/>
			<path class="st3" d="M160.39,210.83l-5.19-2.99c-0.42-0.24-0.36-0.66,0.12-0.94l5.14-2.97c0.48-0.28,1.21-0.31,1.62-0.07
				l5.19,2.99c0.42,0.24,0.36,0.66-0.12,0.94l-5.14,2.97C161.53,211.04,160.8,211.07,160.39,210.83z"/>
			<path class="st3" d="M168.4,215.45l-5.19-2.99c-0.42-0.24-0.36-0.66,0.12-0.94l5.14-2.97c0.48-0.28,1.21-0.31,1.62-0.07
				l5.19,2.99c0.42,0.24,0.36,0.66-0.12,0.94l-5.14,2.97C169.54,215.66,168.81,215.69,168.4,215.45z"/>
			<path class="st3" d="M176.41,220.07l-5.19-2.99c-0.42-0.24-0.36-0.66,0.12-0.94l5.14-2.97c0.48-0.28,1.21-0.31,1.62-0.07
				l5.19,2.99c0.42,0.24,0.36,0.66-0.12,0.94l-5.14,2.97C177.55,220.28,176.82,220.32,176.41,220.07z"/>
			<path class="st3" d="M184.42,224.7l-5.19-2.99c-0.42-0.24-0.36-0.66,0.12-0.94l5.14-2.97c0.48-0.28,1.21-0.31,1.62-0.07
				l5.19,2.99c0.42,0.24,0.36,0.66-0.12,0.94l-5.14,2.97C185.56,224.91,184.83,224.94,184.42,224.7z"/>
			<path class="st3" d="M192.43,229.32l-5.19-2.99c-0.42-0.24-0.36-0.66,0.12-0.94l5.14-2.97c0.48-0.28,1.21-0.31,1.62-0.07
				l5.19,2.99c0.42,0.24,0.36,0.66-0.12,0.94l-5.14,2.97C193.57,229.53,192.84,229.56,192.43,229.32z"/>
			<path class="st3" d="M200.43,233.95l-5.19-2.99c-0.42-0.24-0.36-0.66,0.12-0.94l5.14-2.97c0.48-0.28,1.21-0.31,1.62-0.07
				l5.19,2.99c0.42,0.24,0.36,0.66-0.12,0.94l-5.14,2.97C201.58,234.16,200.85,234.19,200.43,233.95z"/>
			<path class="st3" d="M214.67,242.17l-11.32-6.53c-0.42-0.24-0.36-0.66,0.12-0.94l5.14-2.97c0.48-0.28,1.21-0.31,1.62-0.07
				l11.32,6.53c0.42,0.24,0.36,0.66-0.12,0.94l-5.14,2.97C215.82,242.38,215.09,242.41,214.67,242.17z"/>
			<path class="st3" d="M230.27,233.17l-9.55-5.51c-0.42-0.24-0.36-0.66,0.12-0.94l5.14-2.97c0.48-0.28,1.21-0.31,1.62-0.07
				l9.55,5.51c0.42,0.24,0.36,0.66-0.12,0.94l-5.14,2.97C231.41,233.38,230.68,233.41,230.27,233.17z"/>
			<path class="st3" d="M150.39,196.05l-5.19-2.99c-0.42-0.24-0.36-0.66,0.12-0.94l5.14-2.97c0.48-0.28,1.21-0.31,1.62-0.07
				l5.19,2.99c0.42,0.24,0.36,0.66-0.12,0.94l-5.14,2.97C151.53,196.26,150.8,196.29,150.39,196.05z"/>
			<path class="st3" d="M142.18,191.31l-5.19-2.99c-0.42-0.24-0.36-0.66,0.12-0.94l5.14-2.97c0.48-0.28,1.21-0.31,1.62-0.07
				l5.19,2.99c0.42,0.24,0.36,0.66-0.12,0.94l-5.14,2.97C143.32,191.52,142.59,191.55,142.18,191.31z"/>
			<path class="st2" d="M133.97,186.57l-5.19-2.99c-0.42-0.24-0.36-0.66,0.12-0.94l5.14-2.97c0.48-0.28,1.21-0.31,1.62-0.07
				l5.19,2.99c0.42,0.24,0.36,0.66-0.12,0.94l-5.14,2.97C135.11,186.78,134.38,186.81,133.97,186.57z"/>
			<path class="st3" d="M125.76,181.83l-5.19-2.99c-0.42-0.24-0.36-0.66,0.12-0.94l5.14-2.97c0.48-0.28,1.21-0.31,1.62-0.07
				l5.19,2.99c0.42,0.24,0.36,0.66-0.12,0.94l-5.14,2.97C126.9,182.04,126.18,182.07,125.76,181.83z"/>
			<path class="st3" d="M158.4,200.67l-5.19-2.99c-0.42-0.24-0.36-0.66,0.12-0.94l5.14-2.97c0.48-0.28,1.21-0.31,1.62-0.07
				l5.19,2.99c0.42,0.24,0.36,0.66-0.12,0.94l-5.14,2.97C159.54,200.88,158.81,200.91,158.4,200.67z"/>
			<path class="st3" d="M166.4,205.3l-5.19-2.99c-0.42-0.24-0.36-0.66,0.12-0.94l5.14-2.97c0.48-0.28,1.21-0.31,1.62-0.07l5.19,2.99
				c0.42,0.24,0.36,0.66-0.12,0.94l-5.14,2.97C167.55,205.51,166.82,205.54,166.4,205.3z"/>
			<path class="st3" d="M174.41,209.92l-5.19-2.99c-0.42-0.24-0.36-0.66,0.12-0.94l5.14-2.97c0.48-0.28,1.21-0.31,1.62-0.07
				l5.19,2.99c0.42,0.24,0.36,0.66-0.12,0.94l-5.14,2.97C175.56,210.13,174.83,210.16,174.41,209.92z"/>
			<path class="st3" d="M182.42,214.55l-5.19-2.99c-0.42-0.24-0.36-0.66,0.12-0.94l5.14-2.97c0.48-0.28,1.21-0.31,1.62-0.07
				l5.19,2.99c0.42,0.24,0.36,0.66-0.12,0.94l-5.14,2.97C183.57,214.76,182.84,214.79,182.42,214.55z"/>
			<path class="st3" d="M190.43,219.17l-5.19-2.99c-0.42-0.24-0.36-0.66,0.12-0.94l5.14-2.97c0.48-0.28,1.21-0.31,1.62-0.07
				l5.19,2.99c0.42,0.24,0.36,0.66-0.12,0.94l-5.14,2.97C191.58,219.38,190.85,219.41,190.43,219.17z"/>
			<path class="st3" d="M198.44,223.79l-5.19-2.99c-0.42-0.24-0.36-0.66,0.12-0.94l5.14-2.97c0.48-0.28,1.21-0.31,1.62-0.07
				l5.19,2.99c0.42,0.24,0.36,0.66-0.12,0.94l-5.14,2.97C199.59,224,198.86,224.03,198.44,223.79z"/>
			<path class="st3" d="M206.45,228.42l-5.19-2.99c-0.42-0.24-0.36-0.66,0.12-0.94l5.14-2.97c0.48-0.28,1.21-0.31,1.62-0.07
				l5.19,2.99c0.42,0.24,0.36,0.66-0.12,0.94l-5.14,2.97C207.6,228.63,206.87,228.66,206.45,228.42z"/>
			<path class="st3" d="M214.46,233.04l-5.19-2.99c-0.42-0.24-0.36-0.66,0.12-0.94l5.14-2.97c0.48-0.28,1.21-0.31,1.62-0.07
				l5.19,2.99c0.42,0.24,0.36,0.66-0.12,0.94l-5.14,2.97C215.6,233.25,214.88,233.28,214.46,233.04z"/>
			<path class="st3" d="M222.47,237.67l-5.19-2.99c-0.42-0.24-0.36-0.66,0.12-0.94l5.14-2.97c0.48-0.28,1.21-0.31,1.62-0.07
				l5.19,2.99c0.42,0.24,0.36,0.66-0.12,0.94l-5.14,2.97C223.61,237.88,222.89,237.91,222.47,237.67z"/>
			<path class="st3" d="M146.17,184.61l-5.19-2.99c-0.42-0.24-0.36-0.66,0.12-0.94l5.14-2.97c0.48-0.28,1.21-0.31,1.62-0.07
				l5.19,2.99c0.42,0.24,0.36,0.66-0.12,0.94l-5.14,2.97C147.31,184.82,146.58,184.85,146.17,184.61z"/>
			<path class="st3" d="M138.2,180.01l-5.19-2.99c-0.42-0.24-0.36-0.66,0.12-0.94l5.14-2.97c0.48-0.28,1.21-0.31,1.62-0.07
				l5.19,2.99c0.42,0.24,0.36,0.66-0.12,0.94l-5.14,2.97C139.34,180.22,138.61,180.25,138.2,180.01z"/>
			<path class="st3" d="M130.23,175.41l-5.19-2.99c-0.42-0.24-0.36-0.66,0.12-0.94l5.14-2.97c0.48-0.28,1.21-0.31,1.62-0.07
				l5.19,2.99c0.42,0.24,0.36,0.66-0.12,0.94l-5.14,2.97C131.37,175.62,130.65,175.65,130.23,175.41z"/>
			<path class="st3" d="M122.26,170.81l-5.19-2.99c-0.42-0.24-0.36-0.66,0.12-0.94l5.14-2.97c0.48-0.28,1.21-0.31,1.62-0.07
				l5.19,2.99c0.42,0.24,0.36,0.66-0.12,0.94l-5.14,2.97C123.4,171.02,122.68,171.05,122.26,170.81z"/>
			<path class="st3" d="M130.45,166.08l-5.19-2.99c-0.42-0.24-0.36-0.66,0.12-0.94l1.7-0.98c0.48-0.28,1.21-0.31,1.62-0.07
				l5.19,2.99c0.42,0.24,0.36,0.66-0.12,0.94l-1.7,0.98C131.6,166.29,130.87,166.32,130.45,166.08z"/>
			<path class="st3" d="M140.85,172.08l-5.19-2.99c-0.42-0.24-0.36-0.66,0.12-0.94l1.7-0.98c0.48-0.28,1.21-0.31,1.62-0.07
				l5.19,2.99c0.42,0.24,0.36,0.66-0.12,0.94l-1.7,0.98C142,172.29,141.27,172.32,140.85,172.08z"/>
			<path class="st3" d="M148.79,176.66l-5.19-2.99c-0.42-0.24-0.36-0.66,0.12-0.94l1.7-0.98c0.48-0.28,1.21-0.31,1.62-0.07
				l5.19,2.99c0.42,0.24,0.36,0.66-0.12,0.94l-1.7,0.98C149.93,176.87,149.21,176.9,148.79,176.66z"/>
			<path class="st3" d="M156.73,181.24l-5.19-2.99c-0.42-0.24-0.36-0.66,0.12-0.94l1.7-0.98c0.48-0.28,1.21-0.31,1.62-0.07
				l5.19,2.99c0.42,0.24,0.36,0.66-0.12,0.94l-1.7,0.98C157.87,181.45,157.14,181.48,156.73,181.24z"/>
			<path class="st3" d="M164.66,185.83l-5.19-2.99c-0.42-0.24-0.36-0.66,0.12-0.94l1.7-0.98c0.48-0.28,1.21-0.31,1.62-0.07
				l5.19,2.99c0.42,0.24,0.36,0.66-0.12,0.94l-1.7,0.98C165.81,186.04,165.08,186.07,164.66,185.83z"/>
			<path class="st3" d="M208.97,211.41l-5.19-2.99c-0.42-0.24-0.36-0.66,0.12-0.94l1.7-0.98c0.48-0.28,1.21-0.31,1.62-0.07
				l5.19,2.99c0.42,0.24,0.36,0.66-0.12,0.94l-1.7,0.98C210.12,211.62,209.39,211.65,208.97,211.41z"/>
			<path class="st3" d="M216.91,215.99l-5.19-2.99c-0.42-0.24-0.36-0.66,0.12-0.94l1.7-0.98c0.48-0.28,1.21-0.31,1.62-0.07
				l5.19,2.99c0.42,0.24,0.36,0.66-0.12,0.94l-1.7,0.98C218.05,216.2,217.32,216.23,216.91,215.99z"/>
			<path class="st3" d="M224.84,220.57l-5.19-2.99c-0.42-0.24-0.36-0.66,0.12-0.94l1.7-0.98c0.48-0.28,1.21-0.31,1.62-0.07
				l5.19,2.99c0.42,0.24,0.36,0.66-0.12,0.94l-1.7,0.98C225.99,220.78,225.26,220.81,224.84,220.57z"/>
			<path class="st3" d="M232.78,225.15l-5.19-2.99c-0.42-0.24-0.36-0.66,0.12-0.94l1.7-0.98c0.48-0.28,1.21-0.31,1.62-0.07
				l5.19,2.99c0.42,0.24,0.36,0.66-0.12,0.94l-1.7,0.98C233.92,225.36,233.2,225.39,232.78,225.15z"/>
			<path class="st3" d="M154.18,189.24l-5.19-2.99c-0.42-0.24-0.36-0.66,0.12-0.94l5.14-2.97c0.48-0.28,1.21-0.31,1.62-0.07
				l5.19,2.99c0.42,0.24,0.36,0.66-0.12,0.94l-5.14,2.97C155.32,189.45,154.59,189.48,154.18,189.24z"/>
			<path class="st3" d="M162.19,193.86l-5.19-2.99c-0.42-0.24-0.36-0.66,0.12-0.94l5.14-2.97c0.48-0.28,1.21-0.31,1.62-0.07
				l5.19,2.99c0.42,0.24,0.36,0.66-0.12,0.94l-5.14,2.97C163.33,194.07,162.6,194.1,162.19,193.86z"/>
			<path class="st3" d="M170.2,198.48l-5.19-2.99c-0.42-0.24-0.36-0.66,0.12-0.94l5.14-2.97c0.48-0.28,1.21-0.31,1.62-0.07
				l5.19,2.99c0.42,0.24,0.36,0.66-0.12,0.94l-5.14,2.97C171.34,198.69,170.61,198.72,170.2,198.48z"/>
			<path class="st3" d="M178.21,203.11l-5.19-2.99c-0.42-0.24-0.36-0.66,0.12-0.94l5.14-2.97c0.48-0.28,1.21-0.31,1.62-0.07
				l5.19,2.99c0.42,0.24,0.36,0.66-0.12,0.94l-5.14,2.97C179.35,203.32,178.62,203.35,178.21,203.11z"/>
			<path class="st3" d="M186.22,207.73l-5.19-2.99c-0.42-0.24-0.36-0.66,0.12-0.94l5.14-2.97c0.48-0.28,1.21-0.31,1.62-0.07
				l5.19,2.99c0.42,0.24,0.36,0.66-0.12,0.94l-5.14,2.97C187.36,207.94,186.63,207.97,186.22,207.73z"/>
			<path class="st3" d="M194.22,212.36l-5.19-2.99c-0.42-0.24-0.36-0.66,0.12-0.94l5.14-2.97c0.48-0.28,1.21-0.31,1.62-0.07
				l5.19,2.99c0.42,0.24,0.36,0.66-0.12,0.94l-5.14,2.97C195.37,212.57,194.64,212.6,194.22,212.36z"/>
			<path class="st3" d="M202.23,216.98l-5.19-2.99c-0.42-0.24-0.36-0.66,0.12-0.94l5.14-2.97c0.48-0.28,1.21-0.31,1.62-0.07
				l5.19,2.99c0.42,0.24,0.36,0.66-0.12,0.94l-5.14,2.97C203.38,217.19,202.65,217.22,202.23,216.98z"/>
			<path class="st3" d="M210.24,221.6l-5.19-2.99c-0.42-0.24-0.36-0.66,0.12-0.94l5.14-2.97c0.48-0.28,1.21-0.31,1.62-0.07
				l5.19,2.99c0.42,0.24,0.36,0.66-0.12,0.94l-5.14,2.97C211.39,221.82,210.66,221.85,210.24,221.6z"/>
			<path class="st3" d="M218.25,226.23l-5.19-2.99c-0.42-0.24-0.36-0.66,0.12-0.94l5.14-2.97c0.48-0.28,1.21-0.31,1.62-0.07
				l5.19,2.99c0.42,0.24,0.36,0.66-0.12,0.94l-5.14,2.97C219.4,226.44,218.67,226.47,218.25,226.23z"/>
			<path class="st3" d="M108.39,189.81l-15.27-8.82c-0.42-0.24-0.36-0.66,0.12-0.94l5.14-2.97c0.48-0.28,1.21-0.31,1.62-0.07
				l15.27,8.82c0.42,0.24,0.36,0.66-0.12,0.94l-5.14,2.97C109.53,190.02,108.8,190.05,108.39,189.81z"/>
			<path class="st3" d="M206.78,246.62l-15.27-8.82c-0.42-0.24-0.36-0.66,0.12-0.94l5.14-2.97c0.48-0.28,1.21-0.31,1.62-0.07
				l15.27,8.82c0.42,0.24,0.36,0.66-0.12,0.94l-5.14,2.97C207.93,246.83,207.2,246.86,206.78,246.62z"/>
			<path class="st3" d="M174.75,238.34l-5.19-2.99c-0.42-0.24-0.36-0.66,0.12-0.94l6.12-3.53c0.48-0.28,1.21-0.31,1.62-0.07
				l5.19,2.99c0.42,0.24,0.36,0.66-0.12,0.94l-6.12,3.53C175.9,238.55,175.17,238.58,174.75,238.34z"/>
			<path class="st3" d="M116.59,204.76l-8.29-4.79c-0.42-0.24-0.36-0.66,0.12-0.94l6.12-3.53c0.48-0.28,1.21-0.31,1.62-0.07
				l8.29,4.79c0.42,0.24,0.36,0.66-0.12,0.94l-6.12,3.53C117.73,204.97,117,205,116.59,204.76z"/>
			<path class="st3" d="M167.04,233.88l-8.29-4.79c-0.42-0.24-0.36-0.66,0.12-0.94l6.12-3.53c0.48-0.28,1.21-0.31,1.62-0.07
				l8.29,4.79c0.42,0.24,0.36,0.66-0.12,0.94l-6.12,3.53C168.18,234.09,167.45,234.12,167.04,233.88z"/>
			<path class="st3" d="M128.14,211.43l-8.29-4.79c-0.42-0.24-0.36-0.66,0.12-0.94l6.12-3.53c0.48-0.28,1.21-0.31,1.62-0.07
				l8.29,4.79c0.42,0.24,0.36,0.66-0.12,0.94l-6.12,3.53C129.29,211.64,128.56,211.67,128.14,211.43z"/>
			<path class="st3" d="M127.77,202.13l36.06,20.82c0.45,0.26,0.45,0.68,0,0.94l-6.24,3.6c-0.45,0.26-1.17,0.26-1.62,0l-36.06-20.82
				L127.77,202.13z"/>
			<path class="st3" d="M197.14,246.72l5.78,3.34c0.34,0.2,0.3,0.54-0.1,0.77l-2.5,1.45c-0.39,0.23-0.99,0.25-1.33,0.06l-5.78-3.34
				c-0.34-0.2-0.3-0.54,0.1-0.77l2.5-1.45C196.2,246.55,196.8,246.52,197.14,246.72z"/>
			<path class="st3" d="M189.06,242.06l5.78,3.34c0.34,0.2,0.3,0.54-0.1,0.77l-2.5,1.45c-0.39,0.23-0.99,0.25-1.33,0.06l-5.78-3.34
				c-0.34-0.2-0.3-0.54,0.1-0.77l2.5-1.45C188.13,241.89,188.72,241.86,189.06,242.06z"/>
			<path class="st3" d="M181.05,237.43l5.78,3.34c0.34,0.2,0.3,0.54-0.1,0.77l-2.5,1.45c-0.39,0.23-0.99,0.25-1.33,0.06l-5.78-3.34
				c-0.34-0.2-0.3-0.54,0.1-0.77l2.5-1.45C180.12,237.26,180.71,237.24,181.05,237.43z"/>
			<path class="st3" d="M193.49,239.51l5.78,3.34c0.34,0.2,0.3,0.54-0.1,0.77l-2.5,1.45c-0.39,0.23-0.99,0.25-1.33,0.06l-5.78-3.34
				c-0.34-0.2-0.3-0.54,0.1-0.77l2.5-1.45C192.55,239.33,193.14,239.31,193.49,239.51z"/>
		</g>
	</g>
</g>
<g>
	<path class="st6" d="M287.35,105.55v85.27c0,2.9-2.03,4.07-4.54,2.62l-115.2-66.51c-2.51-1.45-4.54-4.97-4.54-7.86V33.79
		L287.35,105.55z"/>
</g>
<g>
	<g>
		<g>
			<g>
				<g>
					<path class="st2" d="M277.66,114.98v85.27c0,2.9-2.03,4.07-4.54,2.62l-115.2-66.51c-2.51-1.45-4.54-4.97-4.54-7.86V43.22
						L277.66,114.98z"/>
				</g>
				<g>
					<path class="st2" d="M153.37,26.28v16.94l124.28,71.76V98.04c0-2.9-2.03-6.42-4.54-7.86l-115.2-66.51
						C155.41,22.21,153.37,23.39,153.37,26.28z M265.77,91.55c0-1.2,0.84-1.68,1.87-1.08c1.04,0.6,1.87,2.05,1.87,3.25
						c0,1.2-0.84,1.68-1.87,1.08C266.61,94.2,265.77,92.75,265.77,91.55z M260.58,88.55c0-1.2,0.84-1.68,1.87-1.08
						c1.04,0.6,1.87,2.05,1.87,3.25c0,1.2-0.84,1.68-1.87,1.08C261.42,91.2,260.58,89.75,260.58,88.55z M249.26,82.02
						c0-1.2,0.84-1.68,1.87-1.08c1.04,0.6,1.87,2.05,1.87,3.25s-0.84,1.68-1.87,1.08C250.1,84.67,249.26,83.22,249.26,82.02z
						 M244.07,79.02c0-1.2,0.84-1.68,1.87-1.08c1.04,0.6,1.87,2.05,1.87,3.25c0,1.2-0.84,1.68-1.87,1.08
						C244.9,81.67,244.07,80.22,244.07,79.02z M232.75,72.49c0-1.2,0.84-1.68,1.87-1.08c1.04,0.6,1.87,2.05,1.87,3.25
						c0,1.2-0.84,1.68-1.87,1.08C233.59,75.14,232.75,73.68,232.75,72.49z M227.55,69.49c0-1.2,0.84-1.68,1.87-1.08
						c1.04,0.6,1.87,2.05,1.87,3.25c0,1.2-0.84,1.68-1.87,1.08C228.39,72.14,227.55,70.68,227.55,69.49z M216.24,62.96
						c0-1.2,0.84-1.68,1.87-1.08c1.04,0.6,1.87,2.05,1.87,3.25c0,1.2-0.84,1.68-1.87,1.08C217.08,65.6,216.24,64.15,216.24,62.96z
						 M211.04,59.96c0-1.2,0.84-1.68,1.87-1.08c1.04,0.6,1.87,2.05,1.87,3.25c0,1.2-0.84,1.68-1.87,1.08
						C211.88,62.61,211.04,61.15,211.04,59.96z M199.73,53.42c0-1.2,0.84-1.68,1.87-1.08c1.04,0.6,1.87,2.05,1.87,3.25
						c0,1.2-0.84,1.68-1.87,1.08C200.57,56.07,199.73,54.62,199.73,53.42z M194.53,50.42c0-1.2,0.84-1.68,1.87-1.08
						c1.04,0.6,1.87,2.05,1.87,3.25c0,1.2-0.84,1.68-1.87,1.08C195.37,53.07,194.53,51.62,194.53,50.42z M183.22,43.89
						c0-1.2,0.84-1.68,1.87-1.08c1.04,0.6,1.87,2.05,1.87,3.25c0,1.2-0.84,1.68-1.87,1.08C184.06,46.54,183.22,45.09,183.22,43.89z
						 M178.02,40.89c0-1.2,0.84-1.68,1.87-1.08c1.04,0.6,1.87,2.05,1.87,3.25c0,1.2-0.84,1.68-1.87,1.08
						C178.86,43.54,178.02,42.09,178.02,40.89z M166.71,34.36c0-1.2,0.84-1.68,1.87-1.08c1.04,0.6,1.87,2.05,1.87,3.25
						s-0.84,1.68-1.87,1.08C167.54,37.01,166.71,35.55,166.71,34.36z M161.51,31.36c0-1.2,0.84-1.68,1.87-1.08
						c1.04,0.6,1.87,2.05,1.87,3.25c0,1.2-0.84,1.68-1.87,1.08C162.35,34.01,161.51,32.55,161.51,31.36z"/>
				</g>
				<g>
					<path class="st7" d="M172.26,48.36l86.5,49.94c0.69,0.4,1.24-0.02,1.24-0.94l0,0c0-0.92-0.56-1.98-1.24-2.37l-86.5-49.94
						c-0.69-0.4-1.24,0.02-1.24,0.94l0,0C171.02,46.9,171.58,47.96,172.26,48.36z"/>
				</g>
				<g>
					<g>
						<polygon class="st1" points="170.5,77.65 179.35,82.76 179.35,75.26 170.5,70.15 						"/>
					</g>
					<g>
						<polygon class="st1" points="184.03,85.46 192.88,90.57 192.88,83.08 184.03,77.97 						"/>
					</g>
					<g>
						<polygon class="st1" points="170.5,89.88 179.35,94.99 179.35,87.5 170.5,82.39 						"/>
					</g>
					<g>
						<polygon class="st1" points="184.03,97.69 192.88,102.8 192.88,95.31 184.03,90.2 						"/>
					</g>
					<g>
						<polygon class="st8" points="197.56,105.5 206.41,110.61 206.41,103.12 197.56,98.01 						"/>
					</g>
					<g>
						<polygon class="st8" points="211.09,113.31 219.94,118.42 219.94,110.93 211.09,105.82 						"/>
					</g>
					<g>
						<polygon class="st8" points="224.62,121.12 233.47,126.23 233.47,118.74 224.62,113.63 						"/>
					</g>
					<g>
						<polygon class="st8" points="238.15,128.94 247,134.05 247,126.55 238.15,121.44 						"/>
					</g>
					<g>
						<polygon class="st8" points="251.68,136.75 260.53,141.86 260.53,134.37 251.68,129.26 						"/>
					</g>
					<g>
						<polygon class="st1" points="170.5,102.11 179.35,107.22 179.35,99.73 170.5,94.62 						"/>
					</g>
					<g>
						<polygon class="st1" points="184.03,109.92 192.88,115.03 192.88,107.54 184.03,102.43 						"/>
					</g>
					<g>
						<polygon class="st8" points="197.56,117.73 206.41,122.84 206.41,115.35 197.56,110.24 						"/>
					</g>
					<g>
						<polygon class="st8" points="211.09,125.55 219.94,130.66 219.94,123.16 211.09,118.05 						"/>
					</g>
					<g>
						<polygon class="st8" points="224.62,133.36 233.47,138.47 233.47,130.97 224.62,125.87 						"/>
					</g>
					<g>
						<polygon class="st8" points="238.15,141.17 247,146.28 247,138.79 238.15,133.68 						"/>
					</g>
					<g>
						<polygon class="st8" points="251.68,148.98 260.53,154.09 260.53,146.6 251.68,141.49 						"/>
					</g>
					<g>
						<polygon class="st1" points="170.5,114.34 179.35,119.45 179.35,111.96 170.5,106.85 						"/>
					</g>
					<g>
						<polygon class="st1" points="184.03,122.16 192.88,127.27 192.88,119.77 184.03,114.66 						"/>
					</g>
					<g>
						<polygon class="st8" points="197.56,129.97 206.41,135.08 206.41,127.58 197.56,122.48 						"/>
					</g>
					<g>
						<polygon class="st8" points="211.09,137.78 219.94,142.89 219.94,135.4 211.09,130.29 						"/>
					</g>
					<g>
						<polygon class="st8" points="224.62,145.59 233.47,150.7 233.47,143.21 224.62,138.1 						"/>
					</g>
					<g>
						<polygon class="st8" points="238.15,153.4 247,158.51 247,151.02 238.15,145.91 						"/>
					</g>
					<g>
						<polygon class="st8" points="251.68,161.21 260.53,166.32 260.53,158.83 251.68,153.72 						"/>
					</g>
					<g>
						<polygon class="st1" points="170.5,126.58 179.35,131.69 179.35,124.19 170.5,119.09 						"/>
					</g>
					<g>
						<polygon class="st1" points="184.03,134.39 192.88,139.5 192.88,132.01 184.03,126.9 						"/>
					</g>
					<g>
						<polygon class="st8" points="197.56,142.2 206.41,147.31 206.41,139.82 197.56,134.71 						"/>
					</g>
					<g>
						<polygon class="st8" points="211.09,150.01 219.94,155.12 219.94,147.63 211.09,142.52 						"/>
					</g>
					<g>
						<polygon class="st8" points="224.62,157.82 233.47,162.93 233.47,155.44 224.62,150.33 						"/>
					</g>
					<g>
						<polygon class="st8" points="238.15,165.63 247,170.74 247,163.25 238.15,158.14 						"/>
					</g>
					<g>
						<polygon class="st8" points="251.68,173.45 260.53,178.56 260.53,171.06 251.68,165.95 						"/>
					</g>
				</g>
			</g>
			<g>
				<polygon class="st8" points="275.04,203.96 276.33,203.18 275,202.91 				"/>
			</g>
			<g>
				<g>
					<path class="st0" d="M276.38,115.74v85.27c0,2.9-2.03,4.07-4.54,2.62l-115.2-66.51c-2.51-1.45-4.54-4.97-4.54-7.86V43.99
						L276.38,115.74z"/>
				</g>
				<g>
					<g>
						<path class="st2" d="M265.59,90.98c-0.13,0.22-0.2,0.5-0.2,0.84c0,1.2,0.84,2.66,1.88,3.25c0.28,0.16,0.54,0.24,0.77,0.25
							c-0.31,0.54-0.94,0.67-1.68,0.24c-1.04-0.6-1.88-2.06-1.88-3.25C264.49,91.44,264.94,90.95,265.59,90.98z"/>
					</g>
					<g>
						<path class="st2" d="M260.4,87.98c-0.13,0.22-0.2,0.5-0.2,0.84c0,1.2,0.84,2.66,1.88,3.25c0.28,0.16,0.54,0.24,0.78,0.25
							c-0.31,0.54-0.94,0.67-1.68,0.24c-1.04-0.6-1.88-2.06-1.88-3.25C259.3,88.44,259.75,87.95,260.4,87.98z"/>
					</g>
					<g>
						<path class="st2" d="M249.08,81.45c-0.13,0.22-0.2,0.5-0.2,0.84c0,1.2,0.84,2.66,1.88,3.25c0.28,0.16,0.54,0.24,0.78,0.25
							c-0.31,0.54-0.94,0.67-1.68,0.24c-1.04-0.6-1.88-2.06-1.88-3.25C247.98,81.9,248.43,81.41,249.08,81.45z"/>
					</g>
					<g>
						<path class="st2" d="M243.89,78.45c-0.13,0.22-0.2,0.5-0.2,0.84c0,1.2,0.84,2.66,1.88,3.25c0.28,0.16,0.54,0.24,0.78,0.25
							c-0.31,0.54-0.94,0.67-1.68,0.24c-1.04-0.6-1.88-2.06-1.88-3.25C242.79,78.9,243.24,78.41,243.89,78.45z"/>
					</g>
					<g>
						<path class="st2" d="M232.57,71.91c-0.13,0.22-0.2,0.5-0.2,0.84c0,1.2,0.84,2.66,1.88,3.25c0.28,0.16,0.54,0.24,0.78,0.25
							c-0.31,0.54-0.94,0.67-1.68,0.24c-1.04-0.6-1.88-2.06-1.88-3.25C231.47,72.37,231.92,71.88,232.57,71.91z"/>
					</g>
					<g>
						<path class="st2" d="M227.38,68.91c-0.13,0.22-0.2,0.5-0.2,0.84c0,1.2,0.84,2.66,1.88,3.25c0.28,0.16,0.54,0.24,0.78,0.25
							c-0.31,0.54-0.94,0.67-1.68,0.24c-1.04-0.6-1.88-2.06-1.88-3.25C226.28,69.37,226.73,68.88,227.38,68.91z"/>
					</g>
					<g>
						<path class="st2" d="M216.06,62.38c-0.13,0.22-0.2,0.5-0.2,0.84c0,1.2,0.84,2.66,1.88,3.25c0.28,0.16,0.54,0.24,0.78,0.25
							c-0.31,0.54-0.94,0.67-1.68,0.24c-1.04-0.6-1.88-2.06-1.88-3.25C214.95,62.83,215.41,62.34,216.06,62.38z"/>
					</g>
					<g>
						<path class="st2" d="M210.87,59.38c-0.13,0.22-0.2,0.5-0.2,0.84c0,1.2,0.84,2.66,1.88,3.25c0.28,0.16,0.54,0.24,0.78,0.25
							c-0.31,0.54-0.94,0.67-1.68,0.24c-1.04-0.6-1.88-2.06-1.88-3.25C209.77,59.83,210.22,59.34,210.87,59.38z"/>
					</g>
					<g>
						<path class="st2" d="M199.55,52.84c-0.13,0.22-0.2,0.5-0.2,0.84c0,1.2,0.84,2.66,1.88,3.25c0.28,0.16,0.54,0.24,0.78,0.25
							c-0.31,0.54-0.94,0.67-1.68,0.24c-1.04-0.6-1.88-2.06-1.88-3.25C198.44,53.3,198.9,52.81,199.55,52.84z"/>
					</g>
					<g>
						<path class="st2" d="M194.36,49.84c-0.13,0.22-0.2,0.5-0.2,0.84c0,1.2,0.84,2.66,1.88,3.25c0.28,0.16,0.54,0.24,0.78,0.25
							c-0.31,0.54-0.94,0.67-1.68,0.24c-1.04-0.6-1.88-2.06-1.88-3.25C193.25,50.3,193.71,49.81,194.36,49.84z"/>
					</g>
					<g>
						<path class="st2" d="M183.04,43.31c-0.13,0.22-0.2,0.5-0.2,0.84c0,1.2,0.84,2.66,1.88,3.25c0.28,0.16,0.54,0.24,0.78,0.25
							c-0.31,0.54-0.94,0.67-1.68,0.24c-1.04-0.6-1.88-2.06-1.88-3.25C181.93,43.76,182.39,43.27,183.04,43.31z"/>
					</g>
					<g>
						<path class="st2" d="M177.85,40.31c-0.13,0.22-0.2,0.5-0.2,0.84c0,1.2,0.84,2.66,1.88,3.25c0.28,0.16,0.54,0.24,0.78,0.25
							c-0.31,0.54-0.94,0.67-1.68,0.24c-1.04-0.6-1.88-2.06-1.88-3.25C176.74,40.76,177.2,40.27,177.85,40.31z"/>
					</g>
					<g>
						<path class="st2" d="M166.53,33.77c-0.13,0.22-0.2,0.5-0.2,0.84c0,1.2,0.84,2.66,1.88,3.25c0.28,0.16,0.54,0.24,0.78,0.25
							c-0.31,0.54-0.94,0.67-1.68,0.24c-1.04-0.6-1.88-2.06-1.88-3.25C165.42,34.23,165.88,33.74,166.53,33.77z"/>
					</g>
					<g>
						<path class="st2" d="M161.34,30.77c-0.13,0.22-0.2,0.5-0.2,0.84c0,1.2,0.84,2.66,1.88,3.25c0.28,0.16,0.54,0.24,0.78,0.25
							c-0.31,0.54-0.94,0.67-1.68,0.24c-1.04-0.6-1.88-2.06-1.88-3.25C160.23,31.23,160.69,30.74,161.34,30.77z"/>
					</g>
				</g>
				<g>
					<path class="st1" d="M152.09,27.05v16.94l124.28,71.76V98.81c0-2.9-2.03-6.42-4.54-7.86l-115.2-66.51
						C154.13,22.98,152.09,24.15,152.09,27.05z M264.49,92.32c0-1.2,0.84-1.68,1.87-1.08c1.04,0.6,1.87,2.05,1.87,3.25
						c0,1.2-0.84,1.68-1.87,1.08C265.33,94.97,264.49,93.51,264.49,92.32z M259.3,89.32c0-1.2,0.84-1.68,1.87-1.08
						c1.04,0.6,1.87,2.05,1.87,3.25c0,1.2-0.84,1.68-1.87,1.08C260.14,91.97,259.3,90.52,259.3,89.32z M247.98,82.79
						c0-1.2,0.84-1.68,1.87-1.08c1.04,0.6,1.87,2.05,1.87,3.25c0,1.2-0.84,1.68-1.87,1.08C248.82,85.44,247.98,83.98,247.98,82.79z
						 M242.79,79.79c0-1.2,0.84-1.68,1.88-1.08c1.04,0.6,1.87,2.05,1.87,3.25c0,1.2-0.84,1.68-1.87,1.08
						C243.63,82.44,242.79,80.98,242.79,79.79z M231.47,73.25c0-1.2,0.84-1.68,1.87-1.08c1.04,0.6,1.87,2.05,1.87,3.25
						c0,1.2-0.84,1.68-1.87,1.08C232.31,75.9,231.47,74.45,231.47,73.25z M226.28,70.26c0-1.2,0.84-1.68,1.87-1.08
						c1.04,0.6,1.87,2.05,1.87,3.25c0,1.2-0.84,1.68-1.87,1.08C227.12,72.9,226.28,71.45,226.28,70.26z M214.96,63.72
						c0-1.2,0.84-1.68,1.87-1.08c1.04,0.6,1.87,2.05,1.87,3.25s-0.84,1.68-1.87,1.08C215.8,66.37,214.96,64.92,214.96,63.72z
						 M209.77,60.72c0-1.2,0.84-1.68,1.87-1.08c1.04,0.6,1.87,2.05,1.87,3.25c0,1.2-0.84,1.68-1.87,1.08
						C210.6,63.37,209.77,61.92,209.77,60.72z M198.45,54.19c0-1.2,0.84-1.68,1.87-1.08c1.04,0.6,1.87,2.05,1.87,3.25
						c0,1.2-0.84,1.68-1.87,1.08C199.29,56.84,198.45,55.38,198.45,54.19z M193.25,51.19c0-1.2,0.84-1.68,1.87-1.08
						c1.04,0.6,1.87,2.05,1.87,3.25c0,1.2-0.84,1.68-1.87,1.08C194.09,53.84,193.25,52.39,193.25,51.19z M181.94,44.66
						c0-1.2,0.84-1.68,1.88-1.08c1.04,0.6,1.87,2.05,1.87,3.25c0,1.2-0.84,1.68-1.87,1.08C182.78,47.31,181.94,45.85,181.94,44.66z
						 M176.74,41.66c0-1.2,0.84-1.68,1.87-1.08c1.04,0.6,1.87,2.05,1.87,3.25c0,1.2-0.84,1.68-1.87,1.08
						C177.58,44.31,176.74,42.85,176.74,41.66z M165.43,35.12c0-1.2,0.84-1.68,1.87-1.08c1.04,0.6,1.87,2.05,1.87,3.25
						c0,1.2-0.84,1.68-1.87,1.08C166.27,37.77,165.43,36.32,165.43,35.12z M160.23,32.13c0-1.2,0.84-1.68,1.87-1.08
						c1.04,0.6,1.87,2.05,1.87,3.25c0,1.2-0.84,1.68-1.87,1.08C161.07,34.77,160.23,33.32,160.23,32.13z"/>
				</g>
				<g>
					<path class="st2" d="M170.98,49.13l86.5,49.94c0.69,0.4,1.24-0.02,1.24-0.94l0,0c0-0.92-0.56-1.98-1.24-2.37l-86.5-49.94
						c-0.69-0.4-1.24,0.02-1.24,0.94l0,0C169.74,47.67,170.3,48.73,170.98,49.13z"/>
				</g>
				<g>
					<g>
						<polygon class="st1" points="169.22,78.41 178.07,83.52 178.07,76.03 169.22,70.92 						"/>
					</g>
					<g>
						<polygon class="st1" points="182.75,86.22 191.6,91.33 191.6,83.84 182.75,78.73 						"/>
					</g>
					<g>
						<polygon class="st1" points="169.22,90.65 178.07,95.75 178.07,88.26 169.22,83.15 						"/>
					</g>
					<g>
						<polygon class="st1" points="182.75,98.46 191.6,103.57 191.6,96.07 182.75,90.96 						"/>
					</g>
					<g>
						<polygon class="st5" points="196.28,106.27 205.13,111.38 205.13,103.89 196.28,98.78 						"/>
					</g>
					<g>
						<polygon class="st5" points="209.81,114.08 218.66,119.19 218.66,111.7 209.81,106.59 						"/>
					</g>
					<g>
						<polygon class="st5" points="223.34,121.89 232.19,127 232.19,119.51 223.34,114.4 						"/>
					</g>
					<g>
						<polygon class="st5" points="236.87,129.7 245.72,134.81 245.72,127.32 236.87,122.21 						"/>
					</g>
					<g>
						<polygon class="st5" points="250.4,137.51 259.25,142.62 259.25,135.13 250.4,130.02 						"/>
					</g>
					<g>
						<polygon class="st1" points="169.22,102.88 178.07,107.99 178.07,100.5 169.22,95.39 						"/>
					</g>
					<g>
						<polygon class="st1" points="182.75,110.69 191.6,115.8 191.6,108.31 182.75,103.2 						"/>
					</g>
					<g>
						<polygon class="st5" points="196.28,118.5 205.13,123.61 205.13,116.12 196.28,111.01 						"/>
					</g>
					<g>
						<polygon class="st5" points="209.81,126.31 218.66,131.42 218.66,123.93 209.81,118.82 						"/>
					</g>
					<g>
						<polygon class="st5" points="223.34,134.12 232.19,139.23 232.19,131.74 223.34,126.63 						"/>
					</g>
					<g>
						<polygon class="st5" points="236.87,141.94 245.72,147.04 245.72,139.55 236.87,134.44 						"/>
					</g>
					<g>
						<polygon class="st5" points="250.4,149.75 259.25,154.86 259.25,147.36 250.4,142.25 						"/>
					</g>
					<g>
						<polygon class="st1" points="169.22,115.11 178.07,120.22 178.07,112.73 169.22,107.62 						"/>
					</g>
					<g>
						<polygon class="st1" points="182.75,122.92 191.6,128.03 191.6,120.54 182.75,115.43 						"/>
					</g>
					<g>
						<polygon class="st5" points="196.28,130.73 205.13,135.84 205.13,128.35 196.28,123.24 						"/>
					</g>
					<g>
						<polygon class="st5" points="209.81,138.55 218.66,143.65 218.66,136.16 209.81,131.05 						"/>
					</g>
					<g>
						<polygon class="st5" points="223.34,146.36 232.19,151.47 232.19,143.97 223.34,138.86 						"/>
					</g>
					<g>
						<polygon class="st5" points="236.87,154.17 245.72,159.28 245.72,151.79 236.87,146.68 						"/>
					</g>
					<g>
						<polygon class="st5" points="250.4,161.98 259.25,167.09 259.25,159.6 250.4,154.49 						"/>
					</g>
					<g>
						<polygon class="st1" points="169.22,127.34 178.07,132.45 178.07,124.96 169.22,119.85 						"/>
					</g>
					<g>
						<polygon class="st1" points="182.75,135.15 191.6,140.26 191.6,132.77 182.75,127.66 						"/>
					</g>
					<g>
						<polygon class="st5" points="196.28,142.97 205.13,148.08 205.13,140.58 196.28,135.47 						"/>
					</g>
					<g>
						<polygon class="st5" points="209.81,150.78 218.66,155.89 218.66,148.4 209.81,143.29 						"/>
					</g>
					<g>
						<polygon class="st5" points="223.34,158.59 232.19,163.7 232.19,156.21 223.34,151.1 						"/>
					</g>
					<g>
						<polygon class="st5" points="236.87,166.4 245.72,171.51 245.72,164.02 236.87,158.91 						"/>
					</g>
					<g>
						<polygon class="st5" points="250.4,174.21 259.25,179.32 259.25,171.83 250.4,166.72 						"/>
					</g>
				</g>
			</g>
			<g>
				<g>
					<path class="st0" d="M257.85,86.19c0,4.13,2.9,5.8,6.47,3.74c3.58-2.06,6.47-7.08,6.47-11.21c0-4.13-2.9-5.8-6.47-3.74
						C260.75,77.05,257.85,82.07,257.85,86.19z M259.23,85.4c0-3.25,2.28-7.2,5.09-8.82c2.81-1.62,5.09-0.31,5.09,2.94
						c0,3.25-2.28,7.2-5.09,8.82C261.51,89.96,259.23,88.65,259.23,85.4z"/>
				</g>
				<g>
					<polygon class="st0" points="260.37,90.86 259.65,90.33 260.26,90.47 					"/>
				</g>
				<g>
					<polygon class="st0" points="269.14,74.68 270.13,75.41 269.32,75.65 					"/>
				</g>
				<g>
					<path class="st2" d="M258.74,86.85c0,4.13,2.9,5.8,6.47,3.74c3.58-2.06,6.47-7.08,6.47-11.21c0-4.13-2.9-5.8-6.47-3.74
						C261.64,77.7,258.74,82.72,258.74,86.85z M260.12,86.05c0-3.25,2.28-7.2,5.09-8.82c2.81-1.62,5.09-0.31,5.09,2.94
						s-2.28,7.2-5.09,8.82C262.4,90.61,260.12,89.3,260.12,86.05z"/>
				</g>
			</g>
			<g>
				<polygon class="st2" points="265.47,87.38 266.43,86.31 269.21,87.92 267.43,88.83 				"/>
			</g>
			<g>
				<path class="st1" d="M265.44,87.24l2.51,1.45l-1.72,1.71l-3.2,1.43c0,0,0.23-1.4-1.09-2.98L265.44,87.24z"/>
			</g>
			<g>
				<g>
					<path class="st0" d="M241.33,76.66c0,4.13,2.9,5.8,6.47,3.74c3.58-2.06,6.47-7.08,6.47-11.21s-2.9-5.8-6.47-3.74
						C244.23,67.51,241.33,72.53,241.33,76.66z M242.71,75.86c0-3.25,2.28-7.2,5.09-8.82c2.81-1.62,5.09-0.31,5.09,2.94
						c0,3.25-2.28,7.2-5.09,8.82C244.99,80.42,242.71,79.11,242.71,75.86z"/>
				</g>
				<g>
					<polygon class="st0" points="243.85,81.32 243.13,80.79 243.74,80.93 					"/>
				</g>
				<g>
					<polygon class="st0" points="252.62,65.14 253.61,65.87 252.8,66.11 					"/>
				</g>
				<g>
					<path class="st2" d="M242.22,77.31c0,4.13,2.9,5.8,6.47,3.74c3.58-2.06,6.47-7.08,6.47-11.21c0-4.13-2.9-5.8-6.47-3.74
						C245.12,68.16,242.22,73.18,242.22,77.31z M243.6,76.51c0-3.25,2.28-7.2,5.09-8.82c2.81-1.62,5.09-0.31,5.09,2.94
						c0,3.25-2.28,7.2-5.09,8.82C245.88,81.08,243.6,79.76,243.6,76.51z"/>
				</g>
			</g>
			<g>
				<polygon class="st2" points="248.95,77.84 249.91,76.78 252.69,78.38 250.91,79.29 				"/>
			</g>
			<g>
				<path class="st1" d="M248.92,77.7l2.51,1.45l-1.72,1.71l-3.2,1.43c0,0,0.23-1.4-1.09-2.98L248.92,77.7z"/>
			</g>
			<g>
				<g>
					<path class="st0" d="M246.53,79.66c0,4.13,2.9,5.8,6.47,3.74c3.57-2.06,6.47-7.08,6.47-11.21c0-4.13-2.9-5.8-6.47-3.74
						C249.43,70.51,246.53,75.53,246.53,79.66z M247.91,78.86c0-3.25,2.28-7.2,5.09-8.82c2.81-1.62,5.09-0.31,5.09,2.94
						c0,3.25-2.28,7.2-5.09,8.82C250.19,83.43,247.91,82.11,247.91,78.86z"/>
				</g>
				<g>
					<polygon class="st0" points="249.05,84.33 248.33,83.79 248.94,83.94 					"/>
				</g>
				<g>
					<polygon class="st0" points="257.82,68.15 258.81,68.87 258,69.11 					"/>
				</g>
				<g>
					<path class="st2" d="M247.42,80.31c0,4.13,2.9,5.8,6.47,3.74c3.57-2.06,6.47-7.08,6.47-11.21c0-4.13-2.9-5.8-6.47-3.74
						C250.32,71.17,247.42,76.19,247.42,80.31z M248.8,79.52c0-3.25,2.28-7.2,5.09-8.82c2.81-1.62,5.09-0.31,5.09,2.94
						c0,3.25-2.28,7.2-5.09,8.82C251.08,84.08,248.8,82.76,248.8,79.52z"/>
				</g>
			</g>
			<g>
				<polygon class="st2" points="254.15,80.85 255.11,79.78 257.89,81.39 256.11,82.29 				"/>
			</g>
			<g>
				<path class="st1" d="M254.12,80.71l2.51,1.45l-1.72,1.71l-3.2,1.43c0,0,0.23-1.4-1.09-2.98L254.12,80.71z"/>
			</g>
			<g>
				<g>
					<path class="st0" d="M224.81,67.09c0,4.13,2.9,5.8,6.47,3.74c3.57-2.06,6.47-7.08,6.47-11.21c0-4.13-2.9-5.8-6.47-3.74
						C227.71,57.95,224.81,62.96,224.81,67.09z M226.19,66.3c0-3.25,2.28-7.2,5.09-8.82c2.81-1.62,5.09-0.31,5.09,2.94
						c0,3.25-2.28,7.2-5.09,8.82C228.47,70.86,226.19,69.54,226.19,66.3z"/>
				</g>
				<g>
					<polygon class="st0" points="227.32,71.76 226.61,71.22 227.22,71.37 					"/>
				</g>
				<g>
					<polygon class="st0" points="236.1,55.58 237.09,56.31 236.28,56.55 					"/>
				</g>
				<g>
					<path class="st2" d="M225.7,67.74c0,4.13,2.9,5.8,6.47,3.74c3.57-2.06,6.47-7.08,6.47-11.21c0-4.13-2.9-5.8-6.47-3.74
						S225.7,63.62,225.7,67.74z M227.08,66.95c0-3.25,2.28-7.2,5.09-8.82c2.81-1.62,5.09-0.31,5.09,2.94c0,3.25-2.28,7.2-5.09,8.82
						S227.08,70.19,227.08,66.95z"/>
				</g>
			</g>
			<g>
				<polygon class="st2" points="232.43,68.28 233.36,67.22 236.15,68.83 234.39,69.73 				"/>
			</g>
			<g>
				<path class="st1" d="M232.37,68.17l2.51,1.44l-1.71,1.69l-3.17,1.42c0,0,0.2-1.39-1.12-2.97L232.37,68.17z"/>
			</g>
			<g>
				<g>
					<path class="st0" d="M230.01,70.1c0,4.13,2.9,5.8,6.47,3.74c3.57-2.06,6.47-7.08,6.47-11.21c0-4.13-2.9-5.8-6.47-3.74
						C232.91,60.95,230.01,65.97,230.01,70.1z M231.39,69.3c0-3.25,2.28-7.2,5.09-8.82c2.81-1.62,5.09-0.31,5.09,2.94
						c0,3.25-2.28,7.2-5.09,8.82S231.39,72.55,231.39,69.3z"/>
				</g>
				<g>
					<polygon class="st0" points="232.52,74.76 231.81,74.23 232.42,74.38 					"/>
				</g>
				<g>
					<polygon class="st0" points="241.3,58.59 242.29,59.31 241.47,59.55 					"/>
				</g>
				<g>
					<path class="st2" d="M230.9,70.75c0,4.13,2.9,5.8,6.47,3.74c3.57-2.06,6.47-7.08,6.47-11.21c0-4.13-2.9-5.8-6.47-3.74
						C233.8,61.6,230.9,66.62,230.9,70.75z M232.28,69.95c0-3.25,2.28-7.2,5.09-8.82c2.81-1.62,5.09-0.31,5.09,2.94
						c0,3.25-2.28,7.2-5.09,8.82C234.56,74.52,232.28,73.2,232.28,69.95z"/>
				</g>
			</g>
			<g>
				<polygon class="st2" points="237.63,71.28 238.59,70.22 241.37,71.82 239.59,72.73 				"/>
			</g>
			<g>
				<path class="st1" d="M237.59,71.14l2.51,1.45l-1.72,1.71l-3.18,1.42c0,0,0.21-1.37-1.12-2.95L237.59,71.14z"/>
			</g>
			<g>
				<g>
					<path class="st0" d="M208.29,57.53c0,4.13,2.9,5.8,6.47,3.74c3.57-2.06,6.47-7.08,6.47-11.21c0-4.13-2.9-5.8-6.47-3.74
						C211.19,48.38,208.29,53.4,208.29,57.53z M209.67,56.73c0-3.25,2.28-7.2,5.09-8.82c2.81-1.62,5.09-0.31,5.09,2.94
						c0,3.25-2.28,7.2-5.09,8.82C211.95,61.3,209.67,59.98,209.67,56.73z"/>
				</g>
				<g>
					<polygon class="st0" points="210.8,62.19 210.09,61.66 210.7,61.81 					"/>
				</g>
				<g>
					<polygon class="st0" points="219.58,46.02 220.57,46.74 219.75,46.98 					"/>
				</g>
				<g>
					<path class="st2" d="M209.18,58.18c0,4.13,2.9,5.8,6.47,3.74c3.58-2.06,6.47-7.08,6.47-11.21s-2.9-5.8-6.47-3.74
						C212.08,49.03,209.18,54.05,209.18,58.18z M210.56,57.38c0-3.25,2.28-7.2,5.09-8.82c2.81-1.62,5.09-0.31,5.09,2.94
						c0,3.25-2.28,7.2-5.09,8.82C212.84,61.95,210.56,60.63,210.56,57.38z"/>
				</g>
			</g>
			<g>
				<polygon class="st2" points="215.91,58.71 216.84,57.68 219.6,59.28 217.87,60.16 				"/>
			</g>
			<g>
				<path class="st1" d="M215.82,58.6l2.55,1.47l-1.71,1.66l-3.16,1.41c0,0,0.17-1.36-1.16-2.94L215.82,58.6z"/>
			</g>
			<g>
				<g>
					<path class="st0" d="M213.49,60.53c0,4.13,2.9,5.8,6.47,3.74c3.57-2.06,6.47-7.08,6.47-11.21c0-4.13-2.9-5.8-6.47-3.74
						C216.39,51.39,213.49,56.41,213.49,60.53z M214.87,59.74c0-3.25,2.28-7.2,5.09-8.82c2.81-1.62,5.09-0.31,5.09,2.94
						c0,3.25-2.28,7.2-5.09,8.82C217.15,64.3,214.87,62.98,214.87,59.74z"/>
				</g>
				<g>
					<polygon class="st0" points="216,65.2 215.29,64.66 215.9,64.81 					"/>
				</g>
				<g>
					<polygon class="st0" points="224.78,49.02 225.77,49.75 224.95,49.99 					"/>
				</g>
				<g>
					<path class="st2" d="M214.38,61.19c0,4.13,2.9,5.8,6.47,3.74c3.57-2.06,6.47-7.08,6.47-11.21c0-4.13-2.9-5.8-6.47-3.74
						C217.28,52.04,214.38,57.06,214.38,61.19z M215.76,60.39c0-3.25,2.28-7.2,5.09-8.82c2.81-1.62,5.09-0.31,5.09,2.94
						s-2.28,7.2-5.09,8.82C218.04,64.95,215.76,63.64,215.76,60.39z"/>
				</g>
			</g>
			<g>
				<polygon class="st2" points="221.11,61.72 222.04,60.69 224.81,62.28 223.07,63.17 				"/>
			</g>
			<g>
				<path class="st1" d="M221.02,61.6l2.53,1.46l-1.69,1.68l-3.17,1.43c0,0,0.17-1.39-1.15-2.96L221.02,61.6z"/>
			</g>
			<g>
				<g>
					<path class="st0" d="M191.77,47.96c0,4.13,2.9,5.8,6.47,3.74c3.57-2.06,6.47-7.08,6.47-11.21c0-4.13-2.9-5.8-6.47-3.74
						C194.66,38.82,191.77,43.84,191.77,47.96z M193.15,47.17c0-3.25,2.28-7.2,5.09-8.82c2.81-1.62,5.09-0.31,5.09,2.94
						c0,3.25-2.28,7.2-5.09,8.82C195.43,51.73,193.15,50.41,193.15,47.17z"/>
				</g>
				<g>
					<polygon class="st0" points="194.28,52.63 193.56,52.1 194.18,52.24 					"/>
				</g>
				<g>
					<polygon class="st0" points="203.06,36.45 204.05,37.18 203.23,37.42 					"/>
				</g>
				<g>
					<path class="st2" d="M192.66,48.62c0,4.13,2.9,5.8,6.47,3.74c3.58-2.06,6.47-7.08,6.47-11.21c0-4.13-2.9-5.8-6.47-3.74
						C195.55,39.47,192.66,44.49,192.66,48.62z M194.04,47.82c0-3.25,2.28-7.2,5.09-8.82c2.81-1.62,5.09-0.31,5.09,2.94
						c0,3.25-2.28,7.2-5.09,8.82C196.32,52.38,194.04,51.07,194.04,47.82z"/>
				</g>
			</g>
			<g>
				<polygon class="st2" points="199.38,49.15 200.3,48.14 203.06,49.73 201.34,50.6 				"/>
			</g>
			<g>
				<path class="st1" d="M199.27,49.05l2.56,1.48l-1.7,1.65l-3.14,1.4c0,0,0.15-1.34-1.17-2.92L199.27,49.05z"/>
			</g>
			<g>
				<g>
					<path class="st0" d="M196.97,50.97c0,4.13,2.9,5.8,6.47,3.74c3.58-2.06,6.47-7.08,6.47-11.21c0-4.13-2.9-5.8-6.47-3.74
						C199.86,41.82,196.97,46.84,196.97,50.97z M198.35,50.17c0-3.25,2.28-7.2,5.09-8.82c2.81-1.62,5.09-0.31,5.09,2.94
						c0,3.25-2.28,7.2-5.09,8.82C200.63,54.74,198.35,53.42,198.35,50.17z"/>
				</g>
				<g>
					<polygon class="st0" points="199.48,55.63 198.76,55.1 199.37,55.25 					"/>
				</g>
				<g>
					<polygon class="st0" points="208.26,39.46 209.24,40.18 208.43,40.42 					"/>
				</g>
				<g>
					<path class="st2" d="M197.86,51.62c0,4.13,2.9,5.8,6.47,3.74c3.57-2.06,6.47-7.08,6.47-11.21s-2.9-5.8-6.47-3.74
						C200.75,42.47,197.86,47.49,197.86,51.62z M199.24,50.82c0-3.25,2.28-7.2,5.09-8.82c2.81-1.62,5.09-0.31,5.09,2.94
						c0,3.25-2.28,7.2-5.09,8.82C201.52,55.39,199.24,54.07,199.24,50.82z"/>
				</g>
			</g>
			<g>
				<polygon class="st2" points="204.58,52.15 205.5,51.14 208.26,52.73 206.54,53.6 				"/>
			</g>
			<g>
				<path class="st1" d="M204.48,52.05l2.55,1.47l-1.69,1.65l-3.15,1.41c0,0,0.14-1.36-1.18-2.94L204.48,52.05z"/>
			</g>
			<g>
				<g>
					<path class="st0" d="M175.24,38.4c0,4.13,2.9,5.8,6.47,3.74c3.57-2.06,6.47-7.08,6.47-11.21s-2.9-5.8-6.47-3.74
						S175.24,34.27,175.24,38.4z M176.62,37.6c0-3.25,2.28-7.2,5.09-8.82c2.81-1.62,5.09-0.31,5.09,2.94c0,3.25-2.28,7.2-5.09,8.82
						C178.9,42.17,176.62,40.85,176.62,37.6z"/>
				</g>
				<g>
					<polygon class="st0" points="177.76,43.07 177.04,42.53 177.65,42.68 					"/>
				</g>
				<g>
					<polygon class="st0" points="186.53,26.89 187.52,27.61 186.71,27.85 					"/>
				</g>
				<g>
					<path class="st2" d="M176.13,39.05c0,4.13,2.9,5.8,6.47,3.74c3.57-2.06,6.47-7.08,6.47-11.21c0-4.13-2.9-5.8-6.47-3.74
						S176.13,34.92,176.13,39.05z M177.51,38.26c0-3.25,2.28-7.2,5.09-8.82s5.09-0.31,5.09,2.94s-2.28,7.2-5.09,8.82
						S177.51,41.5,177.51,38.26z"/>
				</g>
			</g>
			<g>
				<polygon class="st2" points="182.86,39.58 183.76,38.59 186.51,40.17 184.82,41.03 				"/>
			</g>
			<g>
				<path class="st1" d="M182.71,39.49l2.56,1.48l-1.66,1.65l-3.13,1.4c0,0,0.15-1.37-1.2-2.91L182.71,39.49z"/>
			</g>
			<g>
				<g>
					<path class="st0" d="M180.44,41.41c0,4.13,2.9,5.8,6.47,3.74c3.58-2.06,6.47-7.08,6.47-11.21c0-4.13-2.9-5.8-6.47-3.74
						C183.34,32.26,180.44,37.28,180.44,41.41z M181.82,40.61c0-3.25,2.28-7.2,5.09-8.82c2.81-1.62,5.09-0.31,5.09,2.94
						c0,3.25-2.28,7.2-5.09,8.82C184.1,45.17,181.82,43.86,181.82,40.61z"/>
				</g>
				<g>
					<polygon class="st0" points="182.96,46.07 182.24,45.54 182.85,45.68 					"/>
				</g>
				<g>
					<polygon class="st0" points="191.73,29.89 192.72,30.62 191.91,30.86 					"/>
				</g>
				<g>
					<path class="st2" d="M181.33,42.06c0,4.13,2.9,5.8,6.47,3.74c3.57-2.06,6.47-7.08,6.47-11.21c0-4.13-2.9-5.8-6.47-3.74
						S181.33,37.93,181.33,42.06z M182.71,41.26c0-3.25,2.28-7.2,5.09-8.82c2.81-1.62,5.09-0.31,5.09,2.94
						c0,3.25-2.28,7.2-5.09,8.82C184.99,45.82,182.71,44.51,182.71,41.26z"/>
				</g>
			</g>
			<g>
				<polygon class="st2" points="188.06,42.59 188.96,41.59 191.71,43.18 190.02,44.04 				"/>
			</g>
			<g>
				<path class="st1" d="M187.93,42.5l2.54,1.47l-1.66,1.65l-3.13,1.4c0,0,0.19-1.4-1.21-2.92L187.93,42.5z"/>
			</g>
			<g>
				<g>
					<path class="st0" d="M158.72,28.84c0,4.13,2.9,5.8,6.47,3.74c3.57-2.06,6.47-7.08,6.47-11.21s-2.9-5.8-6.47-3.74
						C161.62,19.69,158.72,24.71,158.72,28.84z M160.1,28.04c0-3.25,2.28-7.2,5.09-8.82c2.81-1.62,5.09-0.31,5.09,2.94
						c0,3.25-2.28,7.2-5.09,8.82C162.38,32.6,160.1,31.29,160.1,28.04z"/>
				</g>
				<g>
					<polygon class="st0" points="161.23,33.5 160.52,32.97 161.13,33.11 					"/>
				</g>
				<g>
					<polygon class="st0" points="170.01,17.32 171,18.05 170.19,18.29 					"/>
				</g>
				<g>
					<path class="st2" d="M159.61,29.49c0,4.13,2.9,5.8,6.47,3.74c3.57-2.06,6.47-7.08,6.47-11.21c0-4.13-2.9-5.8-6.47-3.74
						S159.61,25.36,159.61,29.49z M160.99,28.69c0-3.25,2.28-7.2,5.09-8.82c2.81-1.62,5.09-0.31,5.09,2.94
						c0,3.25-2.28,7.2-5.09,8.82C163.27,33.26,160.99,31.94,160.99,28.69z"/>
				</g>
			</g>
			<g>
				<polygon class="st2" points="166.34,30.02 167.23,29.04 169.96,30.62 168.3,31.47 				"/>
			</g>
			<g>
				<path class="st1" d="M166.19,29.95l2.54,1.47l-1.64,1.63l-3.11,1.39c0,0,0.14-1.41-1.25-2.91L166.19,29.95z"/>
			</g>
			<g>
				<g>
					<path class="st0" d="M163.92,31.84c0,4.13,2.9,5.8,6.47,3.74c3.57-2.06,6.47-7.08,6.47-11.21c0-4.13-2.9-5.8-6.47-3.74
						C166.82,22.69,163.92,27.71,163.92,31.84z M165.3,31.04c0-3.25,2.28-7.2,5.09-8.82c2.81-1.62,5.09-0.31,5.09,2.94
						c0,3.25-2.28,7.2-5.09,8.82C167.58,35.61,165.3,34.29,165.3,31.04z"/>
				</g>
				<g>
					<polygon class="st0" points="166.43,36.51 165.72,35.97 166.33,36.12 					"/>
				</g>
				<g>
					<polygon class="st0" points="175.21,20.33 176.2,21.05 175.39,21.29 					"/>
				</g>
				<g>
					<path class="st2" d="M164.81,32.49c0,4.13,2.9,5.8,6.47,3.74c3.57-2.06,6.47-7.08,6.47-11.21c0-4.13-2.9-5.8-6.47-3.74
						C167.71,23.35,164.81,28.37,164.81,32.49z M166.19,31.7c0-3.25,2.28-7.2,5.09-8.82c2.81-1.62,5.09-0.31,5.09,2.94
						c0,3.25-2.28,7.2-5.09,8.82C168.47,36.26,166.19,34.94,166.19,31.7z"/>
				</g>
			</g>
			<g>
				<polygon class="st2" points="171.54,33.03 172.43,32.04 175.17,33.62 173.5,34.47 				"/>
			</g>
			<g>
				<path class="st1" d="M171.38,32.94l2.55,1.47l-1.65,1.63l-3.12,1.43c0,0,0.15-1.43-1.24-2.95L171.38,32.94z"/>
			</g>
			<g>
				<g>
					<path class="st0" d="M263.05,89.2c0,4.13,2.9,5.8,6.47,3.74c3.57-2.06,6.47-7.08,6.47-11.21c0-4.13-2.9-5.8-6.47-3.74
						C265.95,80.05,263.05,85.07,263.05,89.2z M264.43,88.4c0-3.25,2.28-7.2,5.09-8.82c2.81-1.62,5.09-0.31,5.09,2.94
						c0,3.25-2.28,7.2-5.09,8.82C266.71,92.96,264.43,91.65,264.43,88.4z"/>
				</g>
				<g>
					<polygon class="st0" points="265.56,93.86 264.84,93.33 265.46,93.47 					"/>
				</g>
				<g>
					<polygon class="st0" points="274.34,77.68 275.33,78.41 274.51,78.65 					"/>
				</g>
				<g>
					<path class="st2" d="M263.94,89.85c0,4.13,2.9,5.8,6.47,3.74c3.58-2.06,6.47-7.08,6.47-11.21c0-4.13-2.9-5.8-6.47-3.74
						C266.84,80.7,263.94,85.72,263.94,89.85z M265.32,89.05c0-3.25,2.28-7.2,5.09-8.82s5.09-0.31,5.09,2.94
						c0,3.25-2.28,7.2-5.09,8.82C267.6,93.62,265.32,92.3,265.32,89.05z"/>
				</g>
			</g>
			<g>
				<polygon class="st2" points="276.38,115.74 277.66,114.98 277.66,112.76 276.38,113.58 				"/>
			</g>
			<g>
				<path class="st2" d="M270.66,90.38l0.96-1.06c0,0,2.01,1.06,2.68,1.73l-1.69,0.78L270.66,90.38z"/>
			</g>
			<g>
				<path class="st1" d="M270.63,90.24c0,0,2.1,1.08,3.08,2.24c0.98,1.17-5.5,2.35-5.5,2.35s0.23-1.4-1.09-2.98L270.63,90.24z"/>
			</g>
		</g>
	</g>
</g>
<g>
	<g>
		<g>
			<path class="st0" d="M65.18,149.53c-0.65-0.38-1.35-0.7-2.08-0.99l0.02,0l-4-1.77l0.3,0.7c-3.03-0.6-6.32-0.64-9.38-0.1
				l0.19-0.78l-4.71,2.08l0.03,0c-0.61,0.26-1.21,0.54-1.76,0.86c-5.91,3.41-5.91,8.94,0,12.35c5.91,3.41,15.48,3.41,21.39,0
				C71.09,158.47,71.09,152.94,65.18,149.53z"/>
			<path class="st1" d="M59.5,152.75c-2.77,1.6-7.25,1.6-10.02,0c-2.77-1.6-2.77-4.19,0-5.79c2.77-1.6,7.25-1.6,10.02,0
				C62.27,148.56,62.27,151.15,59.5,152.75z"/>
		</g>
		<g>
			<path class="st1" d="M54.49,150.96L54.49,150.96c-1.33,0-2.41-1.08-2.41-2.41v-30.45h4.82v30.45
				C56.9,149.88,55.82,150.96,54.49,150.96z"/>
			<path class="st1" d="M56.19,119.2c-0.96,0.55-2.52,0.55-3.48,0c-0.96-0.55-0.96-1.45,0-2.01c0.96-0.55,2.52-0.55,3.48,0
				S57.15,118.65,56.19,119.2z"/>
		</g>
		<path class="st0" d="M54.49,119.14L54.49,119.14c-1.08,0-1.95-0.87-1.95-1.95V88.56h3.91v28.63
			C56.44,118.27,55.57,119.14,54.49,119.14z"/>
		<g>
			<path class="st2" d="M82.57,103.56l0-1.12l1.58-0.23l1.77-1.33c0.29-0.21,0.84-0.24,1.17-0.04l1.31,0.76l1.3-0.19v1.14l-0.01,0
				c-0.01,0.13-0.1,0.26-0.3,0.34l-4.13,1.84c-0.33,0.15-0.79,0.13-1.08-0.04l-1.38-0.79C82.65,103.8,82.58,103.68,82.57,103.56
				L82.57,103.56z"/>
			<path class="st1" d="M82.74,102.14l3.19-2.38c0.29-0.21,0.84-0.24,1.17-0.04l2.38,1.37c0.33,0.19,0.3,0.51-0.07,0.67l-4.13,1.84
				c-0.33,0.15-0.79,0.13-1.08-0.04l-1.38-0.79C82.52,102.6,82.49,102.33,82.74,102.14z"/>
			<g>
				<path class="st0" d="M77.37,107.55c0.46,0,0.91-0.11,1.28-0.31l4.95-2.86c0.27-0.16,0.37-0.51,0.21-0.78
					c-0.16-0.27-0.51-0.37-0.78-0.21l-4.95,2.86c-0.37,0.21-1.04,0.21-1.41,0l-8.23-4.77c-0.27-0.16-0.62-0.06-0.78,0.21
					c-0.16,0.27-0.06,0.62,0.21,0.78l8.23,4.77C76.45,107.44,76.91,107.55,77.37,107.55z"/>
			</g>
		</g>
		<g>
			<radialGradient id="SVGID_1_" cx="-22.8041" cy="91.1543" r="49.07" gradientUnits="userSpaceOnUse">
				<stop  offset="0" style="stop-color:#00EFC7"/>
				<stop  offset="0.1092" style="stop-color:#00E5C8"/>
				<stop  offset="0.2911" style="stop-color:#02CCCA"/>
				<stop  offset="0.4457" style="stop-color:#03B1CC"/>
				<stop  offset="1" style="stop-color:#174D64"/>
			</radialGradient>
			<polygon class="st9" points="29.77,97.07 37.72,92.45 33.26,90.44 29.45,93.14 			"/>
			<path class="st1" d="M80.81,90.22c-0.44-0.23-0.89-0.5-1.34-0.83L62.54,76.97c-3.06-2.24-6.21-2.82-8.64-1.58
				c-0.06,0.03-0.12,0.08-0.18,0.11l-0.02-0.01L30.3,89.06l2.1,0.7l8.19,3.72l11.15,7.91l8.8,4.67l0.4,0.08
				c2.05-1.73,4.35-3.21,5.61-5.73c2.18-3.81,8.24-4.9,11.81-7.99c0.36,0.23,0.72,0.44,1.08,0.63
				C80.17,92.32,80.37,91.29,80.81,90.22z"/>
			<path class="st2" d="M88.24,84.62c-0.36,0-0.69,0.13-0.96,0.33l0,0L64.39,98.2l0.84,3.42l0.86-0.41
				c-1.31,2.05-3.32,3.39-5.14,4.92l2.59,0.55l22.42-13.05c0.1-0.04,0.21-0.08,0.31-0.13c0.31-0.16,0.59-0.34,0.86-0.55l0.04-0.02
				l-0.01,0c1.71-1.32,2.67-3.61,2.67-6.47v-0.27C89.82,85.32,89.11,84.62,88.24,84.62z"/>
			<g>
				<path class="st10" d="M56.89,74.75c1.43,0.05,2.96,0.54,4.49,1.45C59.85,75.3,58.32,74.8,56.89,74.75z"/>
				<path class="st1" d="M67.32,99.27V99c0-0.87-0.7-1.57-1.57-1.57c-0.87,0-1.57,0.7-1.57,1.57v0.27c0,2.1-0.67,3.65-1.83,4.24
					c-1.32,0.67-3.32,0.18-5.36-1.32L40.04,89.78c-2.61-1.91-5.28-2.6-7.52-2l13.99-8.12l-16.21,9.4l2.1,0.7l8.19,3.72l11.15,7.91
					l8.8,4.67l0.4,0.08c2.05-1.73,4.35-3.21,5.61-5.73c0.22-0.38,0.48-0.73,0.77-1.06C67.32,99.32,67.32,99.3,67.32,99.27z"/>
			</g>
			<g>
				<path class="st0" d="M60.53,107.46c-1.85,0-3.89-0.75-5.9-2.22L37.7,92.82c-2.04-1.49-4.04-1.98-5.36-1.32
					c-1.17,0.59-1.83,2.14-1.83,4.24c0,0.87-0.7,1.57-1.57,1.57s-1.57-0.7-1.57-1.57c0-3.33,1.3-5.9,3.56-7.05
					c2.43-1.23,5.58-0.66,8.64,1.59L56.5,102.7c2.04,1.49,4.04,1.98,5.36,1.32c1.17-0.59,1.83-2.14,1.83-4.24v-0.27
					c0-0.87,0.7-1.57,1.57-1.57c0.87,0,1.57,0.7,1.57,1.57v0.27c0,3.33-1.3,5.9-3.56,7.05C62.44,107.25,61.51,107.46,60.53,107.46z"
					/>
			</g>
		</g>
	</g>
	<g>
		<g>
			<path class="st3" d="M47.22,135.21c0,0-3.19-1.61-5.15,0.79c-1.96,2.4-4.76,8.05-4.85,11.87c-0.09,3.82,3.02,3.56,4.87,2.66
				c1.85-0.9,7.25-8.74,7.58-10.28c0.33-1.54-0.39-3.61-0.91-4.02C48.25,135.83,47.22,135.21,47.22,135.21z"/>
			<path class="st1" d="M47.92,134.44l0.15,3.31c0.03,0.7-0.32,1.37-0.93,1.72c-0.56,0.32-1.37,0.56-2.46,0.38
				c-2.4-0.39-2.62-1.07-2.79-4.38C41.71,132.17,47.92,134.44,47.92,134.44z"/>
			<g>
				<path class="st3" d="M35.54,128.85c0,0-3.19-1.61-5.15,0.79c-1.96,2.4-4.76,8.05-4.85,11.87c-0.09,3.82,3.02,3.56,4.87,2.66
					c1.85-0.9,7.25-8.74,7.58-10.28c0.33-1.54-0.39-3.61-0.91-4.02C36.57,129.47,35.54,128.85,35.54,128.85z"/>
				<path class="st1" d="M36.24,128.08l0.15,3.31c0.03,0.7-0.32,1.37-0.93,1.72c-0.56,0.32-1.37,0.56-2.46,0.38
					c-2.4-0.39-2.62-1.07-2.79-4.38C30.03,125.81,36.24,128.08,36.24,128.08z"/>
				<path class="st0" d="M64.71,67.4c-0.94-15.36-16.64,2.26-16.64,2.26L37.33,80.19l-9.67,10.63c-1.89,2.08-2.77,4.88-2.4,7.66
					l3.91,29.79c0.19,1.47,1.45,2.56,2.94,2.54c0.42,0,0.9-0.04,1.45-0.13c3.49-0.54,3.23-3.86,3.23-3.86l-0.72-27.87l20.31-12.25
					C56.38,86.71,65.65,82.77,64.71,67.4z"/>
			</g>
			<path class="st0" d="M76.38,73.26c-0.94-15.36-16.64,2.26-16.64,2.26L49,86.04l-9.67,10.63c-1.89,2.08-2.77,4.88-2.4,7.66
				l3.91,29.79c0.19,1.47,1.45,2.56,2.94,2.54c0.42,0,0.9-0.04,1.45-0.13c3.49-0.54,3.23-3.86,3.23-3.86l-0.72-27.87l20.31-12.25
				C68.06,92.57,77.33,88.62,76.38,73.26z"/>
			<path class="st1" d="M67.1,23.94C79,28.87,78.76,35.9,78.76,35.9s-2.33,25.79-1.54,43.01c0.33,7.2-38.25,7.75-32.49-11.46
				c6.78-22.65,4.24-40.98,7.42-43.74C55.32,20.94,64.02,22.66,67.1,23.94z"/>
			<path class="st11" d="M70.93,30.17c-0.62,2.42-3.79,3.69-7.07,2.84c-3.28-0.85-5.44-3.49-4.82-5.91
				c0.62-2.42,3.79-3.69,7.07-2.84C69.39,25.11,71.55,27.76,70.93,30.17z"/>
			<path class="st5" d="M65.87,33.84c-0.7,0-1.42-0.09-2.15-0.28c-1.7-0.44-3.19-1.35-4.17-2.55c-1.03-1.26-1.4-2.7-1.05-4.04
				c0.7-2.72,4.18-4.17,7.76-3.25c3.58,0.92,5.92,3.88,5.23,6.6l0,0C70.92,32.48,68.6,33.84,65.87,33.84z M64.07,24.58
				c-2.21,0-4.06,1.03-4.48,2.68c-0.25,0.99,0.04,2.07,0.83,3.04c0.83,1.02,2.1,1.79,3.57,2.17c2.97,0.77,5.83-0.33,6.38-2.43
				c0.54-2.11-1.43-4.45-4.41-5.21C65.32,24.65,64.69,24.58,64.07,24.58z"/>
			<path class="st11" d="M62.33,23.4c0,0,0.1,0.48-0.1,4.25c-0.06,1.19,4.09,2.29,5.16,1.22c1.07-1.07,0.64-2.19,0.9-6.22
				C68.54,18.61,62.33,23.4,62.33,23.4z"/>
			<path class="st12" d="M68.28,22.65c0,0-1.02,3.74-6.06,5.18l0.08-3.4L68.28,22.65z"/>
			
				<ellipse transform="matrix(0.5133 -0.8582 0.8582 0.5133 17.2268 61.2453)" class="st11" cx="62.61" cy="15.43" rx="9.16" ry="9.16"/>
			<path class="st12" d="M64.71,15.77c0,0-5.04,2.16-8.53,2.18c-3.49,0.02-2.72-2.9-2.72-2.9l10.36-1.5L64.71,15.77z"/>
			<path class="st6" d="M55.14,16.34c0,0,4.39-1.86,8.25-1.09c0.91,0.18,1.75,0.67,2.33,1.38c0.19,0.23,0.43,0.45,0.7,0.51
				c0.68,0.15,1.8-2.68,3.13-2.74c1.33-0.06,2.21,0.88,1.13,2.62c-1.09,1.74-0.72,3.69-0.22,3.97c0.5,0.28,5.82-3.79,1.13-13.08
				c-4.69-9.29-16.6-4.29-18.45-2.4c0,0-1.95,1.7-3.54,0.19C49.59,5.7,47.81,19.03,55.14,16.34z"/>
			<path class="st11" d="M72.08,54.74v6.97c0,0.8-0.34,1.56-0.93,2.1L56.84,76.86l1.63,2.49l18.9-13.71
				c0.88-0.64,1.45-1.62,1.57-2.71l1.28-12.15L72.08,54.74z"/>
			<path class="st1" d="M77.75,32.42c0,0,4.34,6.53,5.96,23.72c0,0-7.42,2.4-11.63,1.04C67.87,55.82,77.75,32.42,77.75,32.42z"/>
			<path class="st2" d="M71.29,40.68c0,0-1.7,9.1-1.8,13.37c-0.03,1.18,0.69,2.24,1.8,2.64l0,0V40.68z"/>
		</g>
		<g>
			<path class="st3" d="M67.58,85.92l-3.16-0.42L43.99,73.71c-0.65-0.38-1.8-0.33-2.55,0.11l-14.47,8.35l-1.91-0.25v1.9l0,0
				c-0.01,0.25,0.13,0.49,0.44,0.67l23.14,13.36c0.65,0.38,1.8,0.33,2.55-0.11l15.76-9.1c0.43-0.25,0.64-0.56,0.62-0.86l0,0V85.92z"
				/>
			<path class="st2" d="M52.23,78.47l-1.45-0.84H34.83l-7.86,4.54l-1.91-0.25v1.9l0,0c-0.01,0.25,0.13,0.49,0.44,0.67l23.14,13.36
				c0.35,0.2,0.83,0.28,1.32,0.25L52.23,78.47z"/>
			<path class="st1" d="M25.9,82.03l-0.85-0.11v1.9l0,0c-0.01,0.25,0.13,0.49,0.44,0.67l0.41,0.24V82.03z"/>
			<path class="st4" d="M48.87,97.96c0.62,0.24,1.51,0.18,2.17-0.13v-3.24h-2.17V97.96z"/>
			<path class="st5" d="M48.64,95.95L25.5,82.59c-0.65-0.38-0.57-1.04,0.18-1.47l15.76-9.1c0.76-0.44,1.9-0.48,2.55-0.11
				l23.14,13.36c0.65,0.38,0.57,1.04-0.18,1.47l-15.76,9.1C50.44,96.28,49.29,96.33,48.64,95.95z"/>
			<path class="st0" d="M48.25,93.92L29,82.81c-0.54-0.31-0.48-0.86,0.15-1.23l8.44-4.75c0.63-0.36,1.58-0.4,2.12-0.09l19.24,11.11
				c0.54,0.31,0.48,0.86-0.15,1.23l-8.44,4.75C49.74,94.2,48.79,94.24,48.25,93.92z"/>
		</g>
		<path class="st11" d="M42.33,71.58l-0.24,1.6c-0.2,1.36-0.17,2.75,0.1,4.09l0.28,1.41c0.16,0.79,0.79,1.41,1.59,1.55l0,0
			c0.62,0.11,1.21-0.32,1.28-0.95l0.38-3.41c0,0,0.87,1.14,1.29,1.14c0.42,0-0.47-3.42-1.43-5.35
			C44.65,69.72,42.33,71.58,42.33,71.58z"/>
		<path class="st11" d="M50.18,46.2l-2.48,4.91c-0.59,1.16-0.93,2.43-1.02,3.73L45.6,71.65l-3.27-0.08L40.85,52.7
			c-0.05-0.58-0.02-1.17,0.08-1.75l1.69-9.57L50.18,46.2z"/>
		<g>
			<path class="st3" d="M47.86,97.23l-1.94-2.53L25.51,82.88c-0.65-0.38-1.18-1.39-1.18-2.27l0.02-16.71l-1.17-1.53l1.1-0.64l0,0
				c0.21-0.14,0.49-0.13,0.8,0.05L48.2,75.18c0.65,0.38,1.18,1.39,1.18,2.27l-0.02,18.2c0,0.49-0.17,0.83-0.43,0.97l0,0L47.86,97.23
				z"/>
			<path class="st2" d="M33.74,87.65l-1.45-0.84l-7.96-13.82l0.01-9.08l-1.17-1.53l1.1-0.64l0,0c0.21-0.14,0.49-0.13,0.8,0.05
				L48.2,75.18c0.35,0.2,0.66,0.58,0.87,1.02L33.74,87.65z"/>
			<path class="st1" d="M23.69,63.06l-0.52-0.68l1.1-0.64l0,0c0.21-0.14,0.49-0.13,0.8,0.05l0.41,0.24L23.69,63.06z"/>
			<path class="st4" d="M48.41,75.32c0.51,0.42,0.91,1.21,0.97,1.95l-2.26,1.3l-1.08-1.88L48.41,75.32z"/>
			<path class="st1" d="M47.1,75.81L23.97,62.42c-0.65-0.38-1.19,0.02-1.19,0.89l-0.02,18.2c0,0.87,0.53,1.89,1.18,2.27l23.13,13.39
				c0.65,0.38,1.19-0.02,1.19-0.89l0.02-18.2C48.28,77.21,47.75,76.19,47.1,75.81z"/>
		</g>
		<path class="st11" d="M58.47,79.34l-0.37,0.77c-0.43,0.88-1.1,1.63-1.93,2.14l-2.3,1.42c-0.71,0.44-1.62,0.48-2.34,0.05
			c-0.03-0.02-0.05-0.03-0.08-0.05c-0.73-0.46-0.8-1.51-0.2-2.12l2.4-2.47c0,0-1.35,1.03-1.73,0.62c-0.28-0.3,1.31-1.79,2.52-1.84
			c1.22-0.05,2.39-1,2.39-1L58.47,79.34z"/>
		<path class="st1" d="M52.38,23.67c0,0-8.8,9.58-12.35,18.36c0,0,3.01,5.42,10.38,7.55C57.78,51.71,52.38,23.67,52.38,23.67z"/>
		<path class="st2" d="M48.75,49.01l1.43-13.78l-3.36,12.91C47.42,48.46,48.06,48.75,48.75,49.01z"/>
		<path class="st5" d="M58.98,21.74l-2.36-0.65c0,0,1.13,1.78,2.78,2.23c1.65,0.45,1.9-0.94,1.9-0.94L58.98,21.74z"/>
	</g>
</g>
<path class="st1" d="M254.23,194.14c-0.11,0-0.23-0.03-0.33-0.09l-87.61-50.58c-0.32-0.19-0.43-0.6-0.25-0.92
	c0.19-0.32,0.6-0.43,0.92-0.25l87.61,50.58c0.32,0.19,0.43,0.6,0.25,0.92C254.69,194.02,254.46,194.14,254.23,194.14z"/>
<g>
	<polygon class="st0" points="33.93,232.47 42.72,237.69 36.19,241.36 27.4,236.14 	"/>
</g>
<g>
	<polygon class="st0" points="55.8,246.78 64.59,251.99 58.05,255.66 49.26,250.45 	"/>
</g>
<g>
	<polygon class="st6" points="75.07,259.01 83.86,264.22 77.33,267.89 68.54,262.68 	"/>
</g>
<g>
	<polygon class="st6" points="128.07,125.99 136.86,131.21 130.33,134.88 121.54,129.66 	"/>
</g>
<g>
	<polygon class="st1" points="123.44,57.71 132.23,62.92 125.7,66.59 116.91,61.38 	"/>
</g>
<g>
	<polygon class="st1" points="8.79,94.33 17.58,99.55 11.05,103.22 2.26,98 	"/>
</g>
<g>
	<polygon class="st1" points="166.42,159.26 175.21,164.47 168.68,168.14 159.89,162.93 	"/>
</g>
<g>
	<polygon class="st0" points="137.77,88.96 146.56,94.17 140.03,97.84 131.24,92.63 	"/>
</g>
<g>
	<polygon class="st0" points="69.79,124.33 78.58,129.55 72.05,133.22 63.26,128 	"/>
</g>
<g>
	<polygon class="st1" points="288.17,78.38 296.96,83.59 290.42,87.26 281.64,82.05 	"/>
</g>
<g>
	<polygon class="st0" points="233.89,195.84 242.68,201.05 236.15,204.72 227.36,199.51 	"/>
</g>
<g>
	<polygon class="st0" points="97.67,271.44 106.46,276.65 99.93,280.32 91.14,275.11 	"/>
</g>
<g>
	<polygon class="st1" points="62.13,271.44 70.92,276.65 64.39,280.32 55.6,275.11 	"/>
</g>
<g>
	<polygon class="st0" points="87.74,282.95 96.53,288.17 90,291.84 81.21,286.62 	"/>
</g>
<g>
	<polygon class="st1" points="117.96,283.81 126.75,289.02 120.22,292.69 111.43,287.48 	"/>
</g>
<g>
	<polygon class="st0" points="138.6,296.53 147.39,301.74 140.86,305.41 132.07,300.2 	"/>
</g>
<g>
	<polygon class="st6" points="266.21,226.02 275,231.24 268.47,234.91 259.68,229.69 	"/>
</g>
<g>
	<polygon class="st0" points="36.7,254.57 45.49,259.78 38.95,263.45 30.17,258.24 	"/>
</g>
<g>
	<g>
		<path class="st13" d="M33.8,176.73l-20.08-11.59c-0.4-0.23-0.76-0.24-1.04-0.08c0,0,0-0.01,0-0.01l-1.95,1.13
			c0,0,0.86,0.31,1.37,0.5v14.62c0,1.19,0.72,2.57,1.62,3.09l19.19,11.08v1.72l1.97-1.13l-0.01,0c0.33-0.2,0.55-0.65,0.55-1.29
			v-14.93C35.41,178.63,34.69,177.25,33.8,176.73z"/>
		<path class="st6" d="M31.81,197.11l-20.08-11.59c-0.89-0.52-1.62-1.9-1.62-3.09V167.5c0-1.19,0.72-1.74,1.62-1.22l20.08,11.59
			c0.89,0.52,1.62,1.9,1.62,3.09v14.93C33.43,197.08,32.71,197.62,31.81,197.11z"/>
	</g>
	<g>
		<path class="st5" d="M18.49,180.37c0,0.86-0.61,1.21-1.35,0.78s-1.35-1.48-1.35-2.35c0-0.86,0.61-1.21,1.35-0.78
			C17.88,178.46,18.49,179.51,18.49,180.37z"/>
		<path class="st5" d="M22.59,182.74c0,0.86-0.61,1.21-1.35,0.78c-0.75-0.43-1.35-1.48-1.35-2.35c0-0.86,0.61-1.21,1.35-0.78
			C21.99,180.83,22.59,181.88,22.59,182.74z"/>
		<path class="st5" d="M26.7,185.11c0,0.86-0.61,1.21-1.35,0.78c-0.75-0.43-1.35-1.48-1.35-2.35c0-0.86,0.61-1.21,1.35-0.78
			C26.09,183.2,26.7,184.25,26.7,185.11z"/>
	</g>
</g>
<g>
	<g>
		<path class="st1" d="M259.67,31.93L239.6,20.34c-0.4-0.23-0.76-0.24-1.04-0.08c0,0,0-0.01,0-0.01l-1.95,1.13
			c0,0,0.86,0.31,1.37,0.5v14.62c0,1.19,0.72,2.57,1.62,3.09l19.19,11.08v1.72l1.97-1.13l-0.01,0c0.33-0.2,0.55-0.65,0.55-1.29
			V35.01C261.29,33.82,260.57,32.44,259.67,31.93z"/>
		<path class="st0" d="M257.69,52.31l-20.08-11.59c-0.89-0.52-1.62-1.9-1.62-3.09V22.7c0-1.19,0.72-1.74,1.62-1.22l20.08,11.59
			c0.89,0.52,1.62,1.9,1.62,3.09v14.93C259.31,52.28,258.58,52.82,257.69,52.31z"/>
	</g>
	<g>
		<path class="st5" d="M244.37,35.57c0,0.86-0.61,1.21-1.35,0.78c-0.75-0.43-1.35-1.48-1.35-2.35c0-0.86,0.61-1.21,1.35-0.78
			C243.76,33.66,244.37,34.71,244.37,35.57z"/>
		<path class="st5" d="M248.47,37.94c0,0.86-0.61,1.21-1.35,0.78c-0.75-0.43-1.35-1.48-1.35-2.35c0-0.86,0.61-1.21,1.35-0.78
			C247.86,36.03,248.47,37.08,248.47,37.94z"/>
		<path class="st5" d="M252.57,40.31c0,0.86-0.61,1.21-1.35,0.78c-0.75-0.43-1.35-1.48-1.35-2.35c0-0.86,0.61-1.21,1.35-0.78
			C251.97,38.4,252.57,39.45,252.57,40.31z"/>
	</g>
</g>
<g>
	<g>
		<path class="st13" d="M241.42,23.66c0-4.93-3.46-10.92-7.73-13.39c-2.08-1.2-3.96-1.34-5.35-0.59l0-0.01l-0.08,0.05
			c-0.02,0.01-0.03,0.02-0.05,0.03l-2.69,1.55l1.28-0.08c-0.52,0.9-0.82,2.08-0.82,3.52c0,4.93,3.46,10.92,7.73,13.39
			c1.13,0.65,2.2,0.98,3.17,1.04c-0.17,0.34-0.59,1.17-0.59,1.17l2.8-1.62c0.06-0.03,0.12-0.07,0.17-0.1l0.13-0.07
			c0,0-0.02,0-0.03,0.01C240.62,27.68,241.42,26.01,241.42,23.66z"/>
		<ellipse transform="matrix(0.866 -0.5 0.5 0.866 20.5336 118.2376)" class="st6" cx="230.89" cy="20.8" rx="6.31" ry="10.93"/>
	</g>
	<g>
		<path class="st5" d="M230.66,25.69c-0.41-0.24-0.76-0.51-1.05-0.81c-0.29-0.3-0.51-0.63-0.66-0.99c-0.16-0.36-0.27-0.73-0.33-1.11
			c-0.07-0.38-0.1-0.81-0.1-1.29l1.42,0.82c0,0.27,0.01,0.49,0.03,0.68c0.02,0.19,0.05,0.38,0.1,0.58c0.05,0.2,0.13,0.37,0.24,0.51
			c0.11,0.15,0.25,0.26,0.41,0.36c0.11,0.06,0.2,0.09,0.28,0.1c0.08,0,0.15-0.01,0.2-0.03c0.05-0.02,0.1-0.09,0.13-0.18
			c0.04-0.1,0.07-0.19,0.08-0.27c0.02-0.08,0.03-0.21,0.04-0.39c0.01-0.18,0.01-0.32,0.01-0.44c0-0.12,0-0.29,0-0.52
			c0-0.25,0-0.46-0.01-0.63c-0.01-0.17-0.03-0.35-0.06-0.54c-0.03-0.19-0.07-0.35-0.13-0.48c-0.05-0.13-0.13-0.25-0.23-0.37
			c-0.1-0.12-0.22-0.22-0.36-0.3c-0.2-0.12-0.37-0.13-0.51-0.06s-0.24,0.23-0.29,0.44l-1.25-0.72l0.07-5.39l3.84,2.22v1.53l-2.6-1.5
			l-0.09,2.25c0.11-0.08,0.27-0.1,0.47-0.08c0.2,0.03,0.42,0.11,0.66,0.24c0.33,0.17,0.62,0.4,0.86,0.67
			c0.24,0.27,0.44,0.59,0.59,0.94c0.15,0.35,0.26,0.73,0.33,1.13c0.07,0.41,0.11,0.84,0.11,1.31c0,0.43-0.02,0.81-0.05,1.12
			c-0.04,0.32-0.1,0.61-0.2,0.87c-0.1,0.26-0.23,0.45-0.39,0.56c-0.16,0.11-0.38,0.15-0.64,0.12
			C231.32,26.01,231.02,25.89,230.66,25.69z"/>
	</g>
</g>
<path class="st6" d="M225.61,147.19l-3.67-5.96c-0.29-0.47-0.14-1.09,0.33-1.38c0.47-0.29,1.09-0.14,1.38,0.33l2.69,4.37l8.51-4.47
	c0.49-0.25,1.09-0.07,1.35,0.42c0.26,0.49,0.07,1.09-0.42,1.35L225.61,147.19z"/>
<path class="st6" d="M219.6,123c-1.92,0-4.11-0.99-5.83-1.98c-5.19-3-7.82-7.02-7.82-11.96c0-2.78,0.99-4.89,2.78-5.92
	c1.79-1.04,4.11-0.84,6.52,0.55c4.61,2.66,8.37,9.17,8.37,14.49c0,2.11-0.65,3.56-1.94,4.3C221.05,122.85,220.35,123,219.6,123z
	 M211.26,104.36c-0.59,0-1.13,0.13-1.6,0.4c-1.19,0.69-1.85,2.22-1.85,4.31c0,4.22,2.32,7.7,6.89,10.34
	c2.69,1.55,4.95,2.1,6.04,1.47c0.67-0.39,1.01-1.29,1.01-2.69c0-4.74-3.34-10.51-7.44-12.88
	C213.22,104.68,212.17,104.36,211.26,104.36z"/>
<path class="st6" d="M226.84,114.56c-0.27,0-0.54-0.12-0.72-0.34c-4.59-5.61-13.72-9.71-13.82-9.75c-0.47-0.21-0.68-0.76-0.47-1.23
	c0.21-0.47,0.76-0.68,1.23-0.47c0.39,0.17,9.62,4.31,14.5,10.27c0.33,0.4,0.27,0.98-0.13,1.31
	C227.25,114.49,227.05,114.56,226.84,114.56z"/>
</svg>
